<?xml version="1.0" encoding="UTF-8"?>
<svg id="Layer_1" data-name="Layer 1" xmlns="http://www.w3.org/2000/svg" xmlns:xodm="http://www.corel.com/coreldraw/odm/2003" version="1.1" viewBox="0 0 1728 1728">
  <defs>
    <style>
      .null {
        display: none;
      }
    </style>
  </defs>
  <path     class="bg"               fill="none" display="none" stroke="none" d="M398.2,561.2c21.6,18.5,51.9,23.6,79.6,23.1,5.2,0,10.5-.2,16-.5v.2c2.1,4.1,4.6,7.7,7.7,9.8,7.7,5.1,14.9,1,23.1-1.5,11.6-3.6,23.4-7.5,35.3-10.2l58.1-1.6c14,17.9,31.5,33.3,55,33.3.8,0,1.6,0,2.4,0,0,17,0,34.3,3.1,51.3,9.8,53.9,50.9,112.5,112,106.3,21.2-1.9,34.4-8.7,47-18.9,7.2,1,13.9,2.1,21,1.5,42.1-4.1,85.4-8.2,115.8-37.7l2.8.3c18.5,9.8,30.3,25.7,50.9,32.9,30.3,11.3,63.2,8.7,94.5,10.8,45.2,2.6,87.3,25.7,128.9,41.1l44.7-54.5c-14.4-6.2-26.2-16.5-38-25.7-10.8-8.2-21.6-15.9-30.3-25.7h0c31.2-5.5,67.6-42.2,77.6-62.6,4-8.4,6.9-17,8.9-25.8,10.2-2.7,16.2-12.8,20.3-22.5,5.6-14.3,12.2-45.1.3-60.2,3.8-3.5,7.3-7.2,9.5-10.8,5.1-9.2,5.1-24.1,3.6-34.9-.7-5.8-1.5-11-3.3-15.5,4.8-3.8,9-7.4,11.9-13.2,3.1-6.7,5.2-14.9,3.1-23.1-1.6-5.1-4.1-10.3-6.7-14.9-1.3-2.5-2.7-5-4-7.6l.6-.3c.5-10.7-3.1-21.5-6.2-31.8-2.1-7.2-4.1-14.4-7.2-21.6-4.6-10.2-11.8-19.5-19.5-27.7-12.4-13.3-23.1-27.2-32.9-42.1-4.6-6.2-9.2-12.3-12.8-19-4.1-8.2-8.2-16.4-14.4-23.6-9.7-11.3-22.6-21.5-38.5-20.5h-3.6l-.4.3c-9.7-12.4-22.4-21.7-36.1-29.5-9.8-6.2-39.6-20.6-47.8-6.2-.5,1-1.5,2.9-2.5,4.4-2.2-3.1-4.6-6-6.9-8.6-5.6-6.2-14.9-10.3-23.1-10.8-2.4-.1-4.7,0-7.1.3v-.2c-8.7-7.7-19.5-13.8-27.2-16.4-8.9-2.9-18.5-4.1-28.1-3.8-4.1-21.5-16-35.8-48.3-28.6-5.5,1.1-10.2,3.8-14.5,7.3h0c-2.1-1.1-4.1-2.7-6.2-3.7-14.4-6.7-31.8-4.1-46.7,0-15.4,4.3-30.2,11.4-43.2,21-15.4-4.1-36-1-49.8,0-21.6,2.1-41.6,7.7-62.2,15.4-20,7.7-41.1,10.3-61.6,16.4-15.9,5.1-32.4,5.1-48.3,10.3-7.2,2.6-25.7,5.1-28.3,13.4-4.6,1-8.2,6.2-12.3,8.7-3.1,2.1-7.2,3.6-10.3,5.6-4.6,3.6-8.7,9.2-14.9,10.8-7.7,2.1-15.4,1.5-23.6,2.1-19.5,1-34.9,14.4-47.8,28.3-16.4,17.5-39,35.4-44.7,60.1,0,.1,0,.3,0,.4-5.7.9-12.3-.5-17.8,3.6-9.8,6.7-18,14.9-24.7,24.7-4.6,7.7-8.7,16.5-12.8,24.7-4.6,9.8-9.2,21.1-15.4,29.8-6.2,8.7-11.9,14.9-13.4,25.7-1.1,7.2-1.1,13.3,1,20-13.3,13.5-19,30.6-21.6,50.2-4.1,26.2,10.8,51.9,30.3,67.8Z"/>
  <path     class="bg"               fill="none" display="none" stroke="none" d="M1294.1,1097.1c-9.8-17-20-34.4-33.9-48.3-14.4-14.4-31.3-26.2-48.8-36-12.8-7.2-26.2-14.4-40.1-20-10.3-4.1-23.1-5.6-33.4-1.5-4.6,1.5-7.2,4.1-9.8,7.1-16.4-29.4-39.5-55.8-72.3-65.2-29.1-8.2-57.6-4.7-86.7-4.1-21.1-14.4-51.9-18-73.5-3.6-4.2,2.7-8,6-11.9,9.2-8.1-1.5-16.7-1-24.7-2-13.8-1.5-28.2-2-42.1,2.1-9.3,2.6-19,4.1-28.8,4.1-17,.5-35,0-50.9,6.7-6.1,2.6-15.9,7.7-23.1,13.9-24-7.8-53-1.8-76,6.2-18.5,6.2-36.4,15.4-53.4,25.2-35.4,20-69.8,43.1-98.1,72.4-4.6,5.1-8.7,10.2-10.8,16.3-24.6,4.9-47,16-60.6,39.6-4.6,8.2-9.8,18.5-11.3,27.7-.5,3.6-1,7.7-1.5,11.8v.6c-7.4,1-10.6,7.4-14.9,15.4-18.5,34.9-30.3,84.8-2.6,118.7,13.9,17,36.5,30.3,58,32.9,30.8,3.6,60.6,8.7,90.9,16.4,8.7,2.1,17.5,1,26.2.5,8.7,0,15.9,1,24.7,2.6,19.5,2.6,36,8.7,55.5,7.2,14-1.4,27.8-3.8,41.6-6.3.8,2,2.5,4,4.1,5.7,3.1,4.1,6.7,8.7,11.8,10.8,4,2.1,8.5,0,13.1,0h0c-2.5.2-4.9,3.1-6.9,4.1-11.3,7.2-14.4,21.1-14.4,33.9.5,30.3,8.7,61.1,23.1,87.8,4.1,7.7,8.7,14.9,13.9,21.6,5.1,6.2,10.8,11.8,17,16.4,5.1,4.1,12.3,7.2,19,8.7,7.7,2.1,17,2.6,24.7,1.5,23.6-2.1,46.2-6.7,69.3-11.8,15.4-3.1,32.4-.5,48.3-2.1,15.8-1.4,31.6-4.8,46.5-11.5.9.7,1.8,1.3,2.8,1.9,36,25.2,81.7,20,122.3,33.4,22.1,7.2,42.1,20,62.7,31.3,21.1,11.3,42.1,23.1,62.7,36.5,12.3,8.2,27.2,12.8,38.5,23.1l-2.4-15.9,56-39.2v-8.7l4.8-17.9c-1,0-6.6-4.1-8.7-5.6-3.6-2.6-6.7-5.1-10.3-7.2-11.7-6.7-24.3-13.5-36.5-19.5,1-1.1,1.8-2.4,2.4-3.6h.2c0,0,6.7,0,6.7,0,5.4,0,10.5-4.3,12.2-9.3h.2c5.1-.5,10.8-1.5,13.9-6.2,2.4-3,3.6-6.8,4.1-10.7,3.1-2.1,6.2-6.7,7.2-8.7,2.6-4.2,3.9-8.8,4.2-13.6,2-4,3.5-7.6,3.5-12.6s-.3-3.8-1-6.2h2c2.1-1,3.6-2.6,4.6-4.6.5-.9.9-1.7,1.3-2.6,3.5,0,7-.6,9.5-2.6,3.7-2.5,4.7-7.9,5-12.8h.7c1,0,2.1,0,2.6-1,1.5-1,3.6-2.6,4.6-4.1,3.8-4.6,4.2-10.7,2.2-16,1.3,0,2.6-.3,3.4-2.1,2.3-3.4,2.3-7.7.8-11.1h.5c0,0,1,0,1,0,2.5-1,4.1-3,4.6-5.6.9-3.9,0-10.1-3.5-13.3l.2-.2c1.6-.5,2.6-1,3.1-3.1,1-2.5,0-6.1-.5-9.2-.3-1.2-.9-2.1-1.6-2.8l.2-.3v-3.1c0-3.1-1.1-5.6-2.1-8.2-1.5-4.6-4.1-7.7-8.2-8.2h-1c0-1,0-2-.1-3-.2-1.2-.8-1.9-1.6-2.2-.8-1.2-1.9-2.1-3.5-2.9-1-.6-1.8-1-2.7-1.3v-.2c.9-4.6-1.1-10.3-4.8-14,10.2-4.7,16.8-18,21.4-27.6,7.2-15.4,19-30.3,22.6-47.3,9.8-41.6-19.5-78.6-41.1-111-7.7-11.8-15.4-23.6-22.1-35.4Z"/>
  <!--<rect class="CN"               fill="none" display="none" stroke="none" x="609.9" y="1143" width="69.4" height="79.2"/> -->
  <!--<rect class="NAc"              fill="none" display="none" stroke="none" x="689.5" y="1266.8" width="41.1" height="46.9"/>-->
  <!--<rect class="HIP"              fill="none" display="none" stroke="none" x="855.4" y="1446.7" width="41.1" height="46.9"/>-->
  <!--<rect class="mdTN"             fill="none" display="none" stroke="none" x="828.5" y="1206.4" width="31.7" height="84.8"/>-->
  <path     id="dlPFC" class="dlPFC" fill="none" display="none" stroke="none" d="M528.5,325.8c17.2-1.7,25.2,17.7,12.6,20.1-15.7,3-31.5,5.9-46.8,11-16.2,5.2-28.5,12.4-38.8,21.7-10.8,11.3-28.9,9.8-20.1-6,18.2-32.5,74.3-44.9,93.2-46.8h-.1Z"/>
  <ellipse  id="EC"    class="EC"    fill="none" display="none" stroke="none" cx="778.7" cy="1440" rx="20.6" ry="35.8" transform="translate(-732.7 810.9) rotate(-39)"/>
  <path     id="MB"    class="MB"    fill="none" display="none" stroke="none" d="M965.3,1296.4c16.4,14.4,24.7,37.5,35.4,55.5l-77,32.9c-.5-1.5-2.1-2.6-2.6-4.1-1.5-2.1,0-4.6-1.5-6.7-2.6-3.1-7.7-3.6-10.8-6.2-10.8-8.2-19.5-17-23.6-29.8-.5-1-3.1-7.7-3.1-7.7l21.1-36.5c14.4-8.7,29.3-21.6,46.7-11.8,6.2,3.6,10.3,9.8,15.4,14.4h0Z"/>
  <path     id="IPP"   class="IPP"   fill="none" display="none" stroke="none" d="M979.8,238.1c-44.5-64.5,91.7-115.3,60.6-38.4-6.7,8.7-9.8,18.5-10.8,29.3,0,5.1-.5,9.8,0,14.9,1,13.9-28.1,25.6-49.8-5.8h0Z"/>
  <path     id="lCb"   class="lCb"   fill="none" display="none" stroke="none" d="M1199.1,688.6h0c.3.2.6.4.7.5,32.5,25.9,92.3-29.3,105.6-56.4,3.9-8.2,6.7-16.6,8.8-25.2v-.6c.2,0,.4,0,.6-.2,9.8-2.9,15.8-12.9,19.8-22.4,5.6-14.4,12.7-45.3.4-60.2-4.4,4-9.3,7.8-13.2,10.9-11.3,8.2-21.1,10.8-34.9,9.8-6.7-.5-13.4,0-19.5-1.5-1.1-.2-2.3-.5-3.4-.8h0c-4.8,1-9.4,1.9-11.8,2.4-19,5.1-33.9,19-53.4,24.1-23.6,6.2-48.3,8.2-71.9,2.6-4.7-1.1-9.3-2.5-13.8-4-.1,0-.2,0-.3-.1h-.7c-7,.6-13.9,1.7-20.7,3.3s-4.5,1.1,0,0c6.8-1.6,0,0,0,0-18.6,13.1-36.6,27.3-50.2,45.9-3.4,4.7-6.7,9.5-9.8,14.3h0v2c-.5,8.7,3.3,17.1,13.5,19.1h4.6c-.2,2.4.2,4.8,1.5,6.7,2.1,3.2,5.4,3.9,8.7,3.6h0c-3.1,4.1-4.6,9.8-1,13.9,1,1.1,2.2,1.7,3.6,2-.5,5.2,0,11.3,2.6,15.9,3.1,6.7,9.2,11.8,16.4,13.4,4.6,1,9.2,1.5,13.4,0,2.1-.4,4.6-1.5,6.6-2.2q.3,0,.5-.2c5.2,3,11.3,3.2,17,1.9,5.6-1.5,9.2-5.1,13.4-8.2,1.1.9,2.2,1.8,3.1,2.6,3.1,2.1,8.2,3.1,11.8,3.1s8.2-1,12.3-2.6c5.1,5.6,9.2,5.1,16.4,4.1,10.1-1.8,18.3-9.1,23.7-17.6h-.4,0Z"/>
  <path     id="M1"    class="M1"    fill="none" display="none" stroke="none" d="M772.2,333.3c-4.6-15.4-16.4-23.6-11.3-41.1,3.6-12.8,14.9-24.7,27.2-30.8,14.9-7.2,20.5-17.5,26.2-32.4,1.5-4.1,3.1-8.2,5.1-12.3,3.6-8.2,7.7-15.4,12.3-23.1,8.7-16.7,1.5-16.8-8.8-11.4-7,3.7-11.6,29.6-24.5,41.5-13.7,12.6-43,26.7-54,60.2-4.6,14-5.5,26.9.3,36.1,2.3,3.7,16.6,51.1,28.2,31.4,1.9-3.2-.6-14.8-.8-18h0Z"/>
  <path     id="ACC"   class="ACC"   fill="none" display="none" stroke="none" d="M665.8,1076.8c33.9-3.3,63.2,6,65.5,20.8s-23.4,29.5-57.3,32.9-63.2-6-65.5-20.8,23.4-29.5,57.3-32.9h0Z"/>
  <path     class="CN"               fill="none" display="none" stroke="none" d="M639.4,1221.7l39.9-39.9c0,.3,0,.5,0,.8,0,2-.1,4-.4,5.9l-33.7,33.7c-.2,0-.4,0-.6,0-1.8,0-3.5-.2-5.2-.4Z"/>
  <path     class="CN"               fill="none" display="none" stroke="none" d="M678.9,1176l-44.4,44.4c-1.5-.5-3-1.2-4.4-1.9l47.7-47.7c.4,1.7.8,3.4,1.1,5.2Z"/>
  <path     class="CN"               fill="none" display="none" stroke="none" d="M652.6,1221.1l24.5-24.5c-4,12.2-13.2,21.5-24.5,24.5Z"/>
  <path     class="CN"               fill="none" display="none" stroke="none" d="M676.2,1166.1l-50,50c-1.2-.9-2.4-1.8-3.5-2.8l51.4-51.5c.8,1.4,1.4,2.8,2,4.3Z"/>
  <path     class="CN"               fill="none" display="none" stroke="none" d="M671.8,1157.9l-52.1,52.1c-1-1.1-1.9-2.3-2.7-3.6l52.1-52c1,1.1,1.9,2.3,2.8,3.5Z"/>
  <path     class="CN"               fill="none" display="none" stroke="none" d="M665.9,1151.3l-51.2,51.2c-.7-1.4-1.4-2.8-1.9-4.3l49.6-49.6c1.2.8,2.4,1.7,3.5,2.7Z"/>
  <path     class="CN"               fill="none" display="none" stroke="none" d="M658.4,1146.2l-47.2,47.2c-.4-1.7-.8-3.5-1-5.3l43.7-43.7c1.5.5,3,1.1,4.5,1.8Z"/>
  <path     class="CN"               fill="none" display="none" stroke="none" d="M648.8,1143.3l-38.9,38.9c0-2.3.2-4.6.6-6.9l32.2-32.2c.6,0,1.3,0,1.9,0,1.4,0,2.8.1,4.2.3Z"/>
  <path     class="CN"               fill="none" display="none" stroke="none" d="M634.9,1144.6l-22.1,22.1c4.1-10.7,12.2-18.9,22.1-22.1Z"/>
  <path     class="mdTN"             fill="none" display="none" stroke="none" d="M832.6,1277.3l27.6-27.6c0,2.2,0,4.4-.2,6.5l-25.5,25.5c-.6-1.4-1.2-2.9-1.8-4.5Z"/>
  <path     class="mdTN"             fill="none" display="none" stroke="none" d="M860.1,1243.6l-28.9,28.9c-.4-1.6-.8-3.4-1.1-5.2l29.6-29.6c.2,1.9.3,3.9.4,5.8Z"/>
  <path     class="mdTN"             fill="none" display="none" stroke="none" d="M836.6,1285.9l22.6-22.6c-.4,2.7-.8,5.3-1.4,7.7l-18.3,18.3c-1-.9-2-2-2.9-3.4Z"/>
  <path     class="mdTN"             fill="none" display="none" stroke="none" d="M858.9,1232.2l-29.7,29.7c-.2-1.9-.4-3.8-.5-5.8l29.2-29.2c.4,1.7.7,3.4,1,5.3Z"/>
  <path     class="mdTN"             fill="none" display="none" stroke="none" d="M856.6,1222l-28.1,28.1c0-.4,0-.8,0-1.2,0-1.7,0-3.5.1-5.1l26.4-26.4c.6,1.4,1.1,3,1.6,4.6Z"/>
  <path     class="mdTN"             fill="none" display="none" stroke="none" d="M843.9,1291.2l11.2-11.2c-2.8,7-6.6,11.3-10.8,11.3s-.3,0-.5,0Z"/>
  <path     class="mdTN"             fill="none" display="none" stroke="none" d="M852.9,1213.1l-23.8,23.8c.3-2.6.6-5.1,1.1-7.4l20-20c.9,1,1.8,2.2,2.6,3.6Z"/>
  <path     class="mdTN"             fill="none" display="none" stroke="none" d="M846.6,1206.8l-14.3,14.3c2.9-9,7.2-14.7,12-14.7s1.5.1,2.3.4Z"/>
  <path     class="NAc"              fill="none" display="none" stroke="none" d="M730.6,1290.2c0,.7,0,1.4,0,2.1l-21.6,21.6c-1.8-.1-3.5-.5-5.2-1.1l26.5-26.5c.2,1.3.3,2.6.3,4Z"/>
  <path     class="NAc"              fill="none" display="none" stroke="none" d="M729.1,1281.2l-29.4,29.4c-1.2-.8-2.4-1.8-3.4-2.9l30.8-30.8c.8,1.3,1.5,2.8,2,4.3Z"/>
  <path     class="NAc"              fill="none" display="none" stroke="none" d="M716.3,1312.8l12.2-12.2c-2.4,5.8-6.8,10.2-12.2,12.2Z"/>
  <path     class="NAc"              fill="none" display="none" stroke="none" d="M724.4,1273.3l-30.9,30.9c-.8-1.3-1.5-2.7-2.1-4.2l29.8-29.8c1.2.9,2.3,1.9,3.3,3Z"/>
  <path     class="NAc"              fill="none" display="none" stroke="none" d="M717.2,1268l-27.2,27.2c-.3-1.6-.5-3.3-.5-5s0-.6,0-.9l22.7-22.7c1.7.2,3.4.7,4.9,1.3Z"/>
  <path     class="NAc"              fill="none" display="none" stroke="none" d="M705.5,1267.2l-14.6,14.6c2.4-7.3,7.9-12.9,14.6-14.6Z"/>
  <path     class="HIP"              fill="none" display="none" stroke="none" d="M868.3,1448.4l-10.3,10.3c2.3-4.6,5.9-8.3,10.3-10.3Z"/>
  <path     class="HIP"              fill="none" display="none" stroke="none" d="M881.6,1447.6l-26,26c-.1-1.1-.2-2.3-.2-3.5s0-1.8.1-2.7l20.7-20.7c1.9,0,3.7.3,5.4.9Z"/>
  <path     class="HIP"              fill="none" display="none" stroke="none" d="M894.4,1459.9l-29.8,29.8c-1.2-.9-2.3-1.9-3.2-3l30.8-30.8c.9,1.3,1.6,2.6,2.2,4.1Z"/>
  <path     class="HIP"              fill="none" display="none" stroke="none" d="M880,1493.1l15.3-15.3c-2.3,7.8-8.2,13.7-15.3,15.3Z"/>
  <path     class="HIP"              fill="none" display="none" stroke="none" d="M896.5,1470.1c0,0,0,.2,0,.3l-23,23c-1.7-.2-3.3-.7-4.9-1.4l27.3-27.3c.4,1.8.6,3.6.6,5.4Z"/>
  <path     class="HIP"              fill="none" display="none" stroke="none" d="M889.4,1452.4l-30.6,30.6c-.8-1.4-1.4-2.8-2-4.3l29.1-29.1c1.3.8,2.4,1.7,3.5,2.8Z"/>
  <ellipse  id="CN"                  fill="none" display="none" stroke="none" cx="644.6" cy="1182.7" rx="34.7" ry="39.5"/>
  <ellipse  id="mdTN"                fill="none" display="none" stroke="none" cx="844.3" cy="1248.8" rx="15.9" ry="42.5"/>
  <ellipse  id="NAc"                 fill="none" display="none" stroke="none" cx="710" cy="1290.3" rx="20.5" ry="23.6"/>
  <ellipse  id="HIP"                 fill="none" display="none" stroke="none" cx="875.9" cy="1470.1" rx="20.5" ry="23.3"/>
  <path     class="label-IPP"        fill="none" display="none" stroke="none" d="M1091.3,149.7v-45.8h6.1v45.8h-6.1Z"/>
  <path     class="label-IPP"        fill="none" display="none" stroke="none" d="M1108,149.7v-45.8h17.3c3,0,5.4.1,7,.4,2.2.4,4.1,1.1,5.7,2.1,1.5,1.1,2.7,2.5,3.7,4.4.9,1.9,1.4,4,1.4,6.2,0,3.9-1.2,7.2-3.7,9.9-2.5,2.7-7,4-13.4,4h-11.8v18.6h-6.1v.2ZM1114.1,125.7h11.8c3.9,0,6.7-.7,8.3-2.2s2.5-3.5,2.5-6.2-.5-3.6-1.5-4.9c-1-1.4-2.2-2.3-3.8-2.7-1-.3-2.9-.4-5.7-.4h-11.7v16.4h.1Z"/>
  <path     class="label-IPP"        fill="none" display="none" stroke="none" d="M1150.8,149.7v-45.8h17.3c3,0,5.4.1,7,.4,2.2.4,4.1,1.1,5.7,2.1,1.5,1.1,2.7,2.5,3.7,4.4.9,1.9,1.4,4,1.4,6.2,0,3.9-1.2,7.2-3.7,9.9-2.5,2.7-7,4-13.4,4h-11.8v18.6h-6.1v.2ZM1156.8,125.7h11.8c3.9,0,6.7-.7,8.3-2.2s2.5-3.5,2.5-6.2-.5-3.6-1.5-4.9c-1-1.4-2.2-2.3-3.8-2.7-1-.3-2.9-.4-5.7-.4h-11.7v16.4h.1Z"/>
  <path     class="label-dlPFC"      fill="none" display="none" stroke="none" d="M409.5,189.4v-4.2c-2.1,3.3-5.2,4.9-9.3,4.9s-5.1-.7-7.3-2.2-3.9-3.5-5.2-6.1c-1.2-2.6-1.8-5.6-1.8-9s.6-6.3,1.7-9,2.8-4.8,5-6.2c2.2-1.4,4.7-2.2,7.4-2.2s3.8.4,5.3,1.3,2.8,1.9,3.8,3.3v-16.4h5.6v45.8h-5.2ZM391.8,172.8c0,4.2.9,7.4,2.7,9.5,1.8,2.1,3.9,3.2,6.3,3.2s4.5-1,6.3-3c1.7-2,2.6-5.1,2.6-9.2s-.9-7.9-2.6-10-3.9-3.2-6.5-3.2-4.6,1-6.3,3.1c-1.7,2-2.5,5.3-2.5,9.7h0Z"/>
  <path     class="label-dlPFC"      fill="none" display="none" stroke="none" d="M423.5,189.4v-45.8h5.6v45.8h-5.6Z"/>
  <path     class="label-dlPFC"      fill="none" display="none" stroke="none" d="M438.5,189.4v-45.8h17.3c3,0,5.4,0,7,.4,2.2.4,4.1,1.1,5.7,2.1,1.5,1.1,2.7,2.5,3.7,4.4.9,1.9,1.4,4,1.4,6.2,0,3.9-1.2,7.2-3.7,9.9-2.5,2.7-7,4-13.4,4h-11.8v18.6h-6.1v.2ZM444.6,165.4h11.8c3.9,0,6.7-.7,8.3-2.2,1.6-1.5,2.5-3.5,2.5-6.2s-.5-3.6-1.5-4.9c-1-1.4-2.2-2.3-3.8-2.7-1-.3-2.9-.4-5.7-.4h-11.7v16.4h0Z"/>
  <path     class="label-dlPFC"      fill="none" display="none" stroke="none" d="M481.5,189.4v-45.8h30.9v5.4h-24.8v14.2h21.5v5.4h-21.5v20.8s-6.1,0-6.1,0Z"/>
  <path     class="label-dlPFC"      fill="none" display="none" stroke="none" d="M553,173.3l6.1,1.5c-1.3,5-3.6,8.8-6.9,11.4-3.3,2.6-7.3,3.9-12.1,3.9s-9-1-12-3c-3.1-2-5.4-4.9-7.1-8.7-1.6-3.8-2.4-7.9-2.4-12.3s.9-8.9,2.7-12.5,4.4-6.2,7.8-8.1c3.4-1.8,7.1-2.8,11.1-2.8s8.4,1.2,11.6,3.5c3.1,2.3,5.3,5.6,6.5,9.8l-6,1.4c-1.1-3.3-2.6-5.8-4.6-7.3s-4.6-2.3-7.6-2.3-6.5.8-8.8,2.5c-2.4,1.7-4,4-5,6.8s-1.4,5.8-1.4,8.8.6,7.3,1.7,10.2c1.1,2.9,2.9,5.1,5.3,6.5,2.4,1.4,5,2.2,7.8,2.2s6.3-1,8.6-2.9c2.4-2,3.9-4.9,4.8-8.7h-.1Z"/>
  <path     class="label-ACC"        fill="none" display="none" stroke="none" d="M478.8,947.1l17.6-45.8h6.5l18.8,45.8h-6.9l-5.3-13.9h-19.2l-5,13.9h-6.5ZM492,928.3h15.5l-4.8-12.7c-1.5-3.9-2.5-7-3.2-9.5-.6,2.9-1.4,5.9-2.5,8.8l-5,13.4Z"/>
  <path     class="label-ACC"        fill="none" display="none" stroke="none" d="M559.2,931l6.1,1.5c-1.3,5-3.6,8.8-6.9,11.4-3.3,2.6-7.3,3.9-12.1,3.9s-9-1-12-3c-3.1-2-5.4-4.9-7.1-8.7-1.6-3.8-2.4-7.9-2.4-12.3s.9-8.9,2.7-12.5,4.4-6.2,7.8-8.1c3.4-1.8,7.1-2.8,11.1-2.8s8.4,1.2,11.6,3.5,5.3,5.6,6.5,9.8l-6,1.4c-1.1-3.3-2.6-5.8-4.6-7.3s-4.6-2.3-7.6-2.3-6.5.8-8.8,2.5c-2.4,1.7-4,4-5,6.8s-1.4,5.8-1.4,8.8.6,7.3,1.7,10.2c1.1,2.9,2.9,5.1,5.3,6.5,2.4,1.4,5,2.2,7.8,2.2s6.3-1,8.6-2.9c2.4-2,3.9-4.9,4.8-8.7h-.1Z"/>
  <path     class="label-ACC"        fill="none" display="none" stroke="none" d="M605.4,931l6.1,1.5c-1.3,5-3.6,8.8-6.9,11.4-3.3,2.6-7.3,3.9-12.1,3.9s-9-1-12-3c-3.1-2-5.4-4.9-7.1-8.7-1.6-3.8-2.4-7.9-2.4-12.3s.9-8.9,2.7-12.5,4.4-6.2,7.8-8.1c3.4-1.8,7.1-2.8,11.1-2.8s8.4,1.2,11.6,3.5,5.3,5.6,6.5,9.8l-6,1.4c-1.1-3.3-2.6-5.8-4.6-7.3s-4.6-2.3-7.6-2.3-6.5.8-8.8,2.5c-2.4,1.7-4,4-5,6.8s-1.4,5.8-1.4,8.8.6,7.3,1.7,10.2c1.1,2.9,2.9,5.1,5.3,6.5,2.4,1.4,5,2.2,7.8,2.2s6.3-1,8.6-2.9c2.4-2,3.9-4.9,4.8-8.7h-.1Z"/>
  <path     class="label-mdTN"       fill="none" display="none" stroke="none" d="M760,897.8v-33.2h5v4.7c1-1.6,2.4-2.9,4.2-3.9,1.7-1,3.7-1.5,5.9-1.5s4.5.5,6,1.5c1.6,1,2.7,2.4,3.3,4.3,2.6-3.9,6-5.8,10.2-5.8s5.8.9,7.6,2.7c1.8,1.8,2.7,4.6,2.7,8.4v22.8h-5.6v-20.9c0-2.2-.2-3.9-.5-4.9-.4-1-1-1.8-2-2.4-1-.6-2.1-.9-3.4-.9-2.3,0-4.3.8-5.8,2.3-1.5,1.6-2.3,4-2.3,7.5v19.3h-5.6v-21.6c0-2.5-.5-4.4-1.4-5.6-.9-1.2-2.4-1.9-4.5-1.9s-3,.4-4.4,1.2c-1.3.8-2.3,2.1-2.9,3.7-.6,1.6-.9,3.9-.9,6.9v17.2h-5.6Z"/>
  <path     class="label-mdTN"       fill="none" display="none" stroke="none" d="M834.9,897.8v-4.2c-2.1,3.3-5.2,4.9-9.3,4.9s-5.1-.7-7.3-2.2-3.9-3.5-5.2-6.1c-1.2-2.6-1.8-5.6-1.8-9s.6-6.3,1.7-9,2.8-4.8,5-6.2,4.7-2.2,7.4-2.2,3.8.4,5.3,1.3,2.8,1.9,3.8,3.3v-16.4h5.6v45.8h-5.2ZM817.1,881.2c0,4.2.9,7.4,2.7,9.5,1.8,2.1,3.9,3.2,6.3,3.2s4.5-1,6.3-3c1.7-2,2.6-5.1,2.6-9.2s-.9-7.9-2.6-10-3.9-3.2-6.5-3.2-4.6,1-6.3,3.1c-1.7,2-2.5,5.3-2.5,9.7h0Z"/>
  <path     class="label-mdTN"       fill="none" display="none" stroke="none" d="M861.3,897.8v-40.4h-15.1v-5.4h36.3v5.4h-15.2v40.4h-6.1.1Z"/>
  <path     class="label-mdTN"       fill="none" display="none" stroke="none" d="M888.8,897.8v-45.8h6.2l24.1,36v-36h5.8v45.8h-6.2l-24.1-36v36h-5.8Z"/>
  <path     class="label-CN"         fill="none" display="none" stroke="none" d="M439,1403.6l6.1,1.5c-1.3,5-3.6,8.8-6.9,11.4s-7.3,3.9-12.1,3.9-9-1-12-3c-3.1-2-5.4-4.9-7.1-8.7-1.6-3.8-2.4-7.9-2.4-12.3s.9-8.9,2.7-12.5,4.4-6.2,7.8-8.1c3.4-1.8,7.1-2.8,11.1-2.8s8.4,1.2,11.6,3.5c3.1,2.3,5.3,5.6,6.5,9.8l-6,1.4c-1.1-3.3-2.6-5.8-4.6-7.3s-4.6-2.3-7.6-2.3-6.5.8-8.8,2.5c-2.4,1.7-4,4-5,6.8s-1.4,5.8-1.4,8.8.6,7.3,1.7,10.2c1.1,2.9,2.9,5.1,5.3,6.5,2.4,1.4,5,2.2,7.8,2.2s6.3-1,8.6-2.9c2.4-2,3.9-4.9,4.8-8.7h0Z"/>
  <path     class="label-CN"         fill="none" display="none" stroke="none" d="M452.5,1419.7v-45.8h6.2l24.1,36v-36h5.8v45.8h-6.2l-24.1-36v36h-5.8Z"/>
  <path     class="label-NAc"        fill="none" display="none" stroke="none" d="M546.5,1454.6v-45.8h6.2l24.1,36v-36h5.8v45.8h-6.2l-24.1-36v36h-5.8Z"/>
  <path     class="label-NAc"        fill="none" display="none" stroke="none" d="M587.7,1454.6l17.6-45.8h6.5l18.8,45.8h-6.9l-5.3-13.9h-19.2l-5,13.9h-6.5ZM600.9,1435.8h15.5l-4.8-12.7c-1.5-3.9-2.5-7-3.2-9.5-.6,2.9-1.4,5.9-2.5,8.8l-5,13.4h0Z"/>
  <path     class="label-NAc"        fill="none" display="none" stroke="none" d="M656.4,1442.4l5.5.7c-.6,3.8-2.2,6.8-4.6,9-2.5,2.2-5.5,3.2-9.2,3.2s-8.2-1.5-11-4.5-4.1-7.2-4.1-12.8.6-6.7,1.8-9.4,3-4.7,5.4-6,5.1-2,7.9-2,6.6.9,8.8,2.7c2.3,1.8,3.8,4.4,4.4,7.8l-5.5.8c-.5-2.2-1.4-3.9-2.8-5-1.3-1.1-2.9-1.7-4.8-1.7-2.8,0-5.1,1-6.9,3s-2.7,5.2-2.7,9.6.9,7.7,2.6,9.7,3.9,3,6.7,3,4.1-.7,5.5-2c1.5-1.4,2.4-3.4,2.8-6.2h.2Z"/>
  <path     class="label-EC"         fill="none" display="none" stroke="none" d="M629.6,1576.3v-45.8h33.1v5.4h-27.1v14h25.3v5.4h-25.3v15.6h28.1v5.4h-34.2.1Z"/>
  <path     class="label-EC"         fill="none" display="none" stroke="none" d="M704.8,1560.2l6.1,1.5c-1.3,5-3.6,8.8-6.9,11.4s-7.3,3.9-12.1,3.9-9-1-12-3c-3.1-2-5.4-4.9-7.1-8.7-1.6-3.8-2.4-7.9-2.4-12.3s.9-8.9,2.7-12.5c1.8-3.6,4.4-6.2,7.8-8.1,3.4-1.8,7.1-2.8,11.1-2.8s8.4,1.2,11.6,3.5c3.1,2.3,5.3,5.6,6.5,9.8l-6,1.4c-1.1-3.3-2.6-5.8-4.6-7.3s-4.6-2.3-7.6-2.3-6.5.8-8.8,2.5c-2.4,1.7-4,4-5,6.8s-1.4,5.8-1.4,8.8.6,7.3,1.7,10.2c1.1,2.9,2.9,5.1,5.3,6.5s5,2.2,7.8,2.2,6.3-1,8.6-2.9c2.4-2,3.9-4.9,4.8-8.7h-.1Z"/>
  <path     class="label-HIP"        fill="none" display="none" stroke="none" d="M826,1622.1v-45.8h6.1v18.8h23.8v-18.8h6.1v45.8h-6.1v-21.6h-23.8v21.6h-6.1Z"/>
  <path     class="label-HIP"        fill="none" display="none" stroke="none" d="M873.1,1622.1v-45.8h6.1v45.8h-6.1Z"/>
  <path     class="label-HIP"        fill="none" display="none" stroke="none" d="M889.8,1622.1v-45.8h17.3c3,0,5.4,0,7,.4,2.2.4,4.1,1.1,5.7,2.1,1.5,1.1,2.7,2.5,3.7,4.4.9,1.9,1.4,4,1.4,6.2,0,3.9-1.2,7.2-3.7,9.9-2.5,2.7-7,4-13.4,4h-11.8v18.6h-6.1v.2ZM896,1598.1h11.8c3.9,0,6.7-.7,8.3-2.2s2.5-3.5,2.5-6.2-.5-3.6-1.5-4.9-2.2-2.3-3.8-2.7c-1-.3-2.9-.4-5.7-.4h-11.7v16.4h.1Z"/>
  <path     class="label-MB"         fill="none" display="none" stroke="none" d="M987.3,1603.2v-45.8h9.1l10.8,32.4c1,3,1.7,5.3,2.2,6.8.5-1.7,1.3-4.1,2.4-7.3l11-31.9h8.2v45.8h-5.8v-38.3l-13.3,38.3h-5.5l-13.2-39v39h-5.9Z"/>
  <path     class="label-MB"         fill="none" display="none" stroke="none" d="M1040.6,1603.2v-45.8h17.2c3.5,0,6.3.5,8.4,1.4,2.1.9,3.8,2.4,5,4.3s1.8,3.9,1.8,6-.5,3.8-1.6,5.5-2.7,3.1-4.8,4.2c2.8.8,4.9,2.2,6.4,4.2s2.2,4.3,2.2,6.9-.5,4.1-1.4,6-2,3.3-3.4,4.3c-1.3,1-3,1.8-5,2.3s-4.5.8-7.4.8h-17.5,0ZM1046.8,1576.6h9.9c2.7,0,4.6-.2,5.8-.5,1.5-.5,2.7-1.2,3.5-2.3s1.2-2.4,1.2-4-.4-2.9-1.1-4c-.7-1.2-1.8-1.9-3.1-2.4-1.4-.4-3.7-.6-7-.6h-9.2v13.8h0ZM1046.8,1597.8h11.4c2,0,3.3,0,4.1-.2,1.4-.2,2.6-.7,3.5-1.2.9-.6,1.7-1.4,2.3-2.5s.9-2.4.9-3.9-.4-3.2-1.3-4.5c-.9-1.3-2.1-2.1-3.6-2.7-1.6-.5-3.8-.8-6.7-.8h-10.6v15.8h0Z"/>
  <path     class="label-lCb"        fill="none" display="none" stroke="none" d="M1165.1,877.7v-45.8h5.6v45.8h-5.6Z"/>
  <path     class="label-lCb"        fill="none" display="none" stroke="none" d="M1212.8,861.6l6.1,1.5c-1.3,5-3.6,8.8-6.9,11.4-3.3,2.6-7.3,3.9-12.1,3.9s-9-1-12-3c-3.1-2-5.4-4.9-7.1-8.7-1.6-3.8-2.4-7.9-2.4-12.3s.9-8.9,2.7-12.5,4.4-6.2,7.8-8.1c3.4-1.8,7.1-2.8,11.1-2.8s8.4,1.2,11.6,3.5c3.1,2.3,5.3,5.6,6.5,9.8l-6,1.4c-1.1-3.3-2.6-5.8-4.6-7.3s-4.6-2.3-7.6-2.3-6.5.8-8.8,2.5c-2.4,1.7-4,4-5,6.8s-1.4,5.8-1.4,8.8.6,7.3,1.7,10.2c1.1,2.9,2.9,5.1,5.3,6.5,2.4,1.4,5,2.2,7.8,2.2s6.3-1,8.6-2.9c2.4-2,3.9-4.9,4.8-8.7h0Z"/>
  <path     class="label-lCb"        fill="none" display="none" stroke="none" d="M1230.8,877.7h-5.2v-45.8h5.6v16.3c2.4-3,5.4-4.5,9.1-4.5s4,.4,5.8,1.2,3.3,2,4.5,3.5,2.1,3.3,2.8,5.4c.7,2.1,1,4.4,1,6.8,0,5.7-1.4,10.1-4.2,13.2-2.8,3.1-6.2,4.7-10.1,4.7s-7-1.6-9.2-4.9v4.2h0ZM1230.8,860.9c0,4,.5,6.9,1.6,8.6,1.8,2.9,4.2,4.3,7.2,4.3s4.6-1.1,6.4-3.2c1.8-2.1,2.7-5.3,2.7-9.5s-.9-7.5-2.6-9.6-3.8-3.1-6.2-3.1-4.6,1.1-6.4,3.2c-1.8,2.1-2.7,5.2-2.7,9.3Z"/>
  <path     class="label-M1"         fill="none" display="none" stroke="none" d="M723.2,139.1v-45.8h9.1l10.8,32.4c1,3,1.7,5.3,2.2,6.8.5-1.7,1.3-4.1,2.4-7.3l11-31.9h8.2v45.8h-5.8v-38.3l-13.3,38.3h-5.5l-13.2-39v39h-5.9Z"/>
  <path     class="label-M1"         fill="none" display="none" stroke="none" d="M795.8,139.1h-5.6v-35.8c-1.4,1.3-3.1,2.6-5.3,3.9-2.2,1.3-4.2,2.3-5.9,2.9v-5.4c3.1-1.5,5.9-3.3,8.2-5.4,2.4-2.1,4-4.1,5-6.1h3.6v46h0Z"/>
  <line     id="path-IPP"            stroke="none" stroke-width="2px" stroke-miterlimit="10" display="none" x1="1081.5" y1="135.6" x2="1047" y2="167.3"/>
  <line     id="path-dlPFC"          stroke="none" stroke-width="2px" stroke-miterlimit="10" display="none" x1="464.3" y1="197.7" x2="479" y2="334.8"/>
  <line     id="path-ACC"            stroke="none" stroke-width="2px" stroke-miterlimit="10" display="none" x1="575.7" y1="964.6" x2="629.4" y2="1078.6"/>
  <line     id="path-mdTN"           stroke="none" stroke-width="2px" stroke-miterlimit="10" display="none" x1="841" y1="906.5" x2="844.4" y2="1201.3"/>
  <line     id="path-CN"             stroke="none" stroke-width="2px" stroke-miterlimit="10" display="none" x1="474.6" y1="1361.3" x2="605.3" y2="1212.8"/>
  <line     id="path-NAc"            stroke="none" stroke-width="2px" stroke-miterlimit="10" display="none" x1="627.6" y1="1395.6" x2="691" y2="1318.8"/>
  <line     id="path-EC"             stroke="none" stroke-width="2px" stroke-miterlimit="10" display="none" x1="699.8" y1="1521.1" x2="758" y2="1461.3"/>
  <line     id="path-HIP"            stroke="none" stroke-width="2px" stroke-miterlimit="10" display="none" x1="875.9" y1="1562.7" x2="875.9" y2="1498.3"/>
  <line     id="path-MB"             stroke="none" stroke-width="2px" stroke-miterlimit="10" display="none" x1="1024.5" y1="1547.4" x2="962.5" y2="1374"/>
  <line     id="path-lCb"            stroke="none" stroke-width="2px" stroke-miterlimit="10" display="none" x1="1209.1" y1="818.3" x2="1199.6" y2="699.4"/>
  <line     id="path-M1"             stroke="none" stroke-width="2px" stroke-miterlimit="10" display="none" x1="762.9" y1="149.7" x2="792.9" y2="217.6"/>
  <g>
    <path   class="brain lateral"    stroke="#000" stroke-width="2px" fill="none" stroke-linecap="round" stroke-linejoin="round" d="M1319.8,536.2c0,32.9,0,66.3-14.4,96.6-13.4,27.2-73.5,83.2-105.8,56"/>
    <path   class="brain lateral"    stroke="#000" stroke-width="2px" fill="none" stroke-linecap="round" stroke-linejoin="round" d="M1314.1,607.1c10.3-2.6,16.4-12.8,20.5-22.6,5.6-14.4,12.3-45.7,0-60.6"/>
    <path   class="brain lateral"    stroke="#000" stroke-width="2px" fill="none" stroke-linecap="round" stroke-linejoin="round" d="M1198.5,665.6c2.1,4.6,6.2,8.2,10.3,9.2,9.8,2.1,21.1-3.1,29.8-7.2,16.4-7.7,32.4-19.5,43.7-34.4,7.2-9.2,13.4-21.6,17-33.4,3.1-10.3,4.6-21.1,5.1-31.8.5-8.2,2.1-17,0-25.2"/>
    <path   class="brain lateral"    stroke="#000" stroke-width="2px" fill="none" stroke-linecap="round" stroke-linejoin="round" d="M1291,571.6c0,27.7-13.4,57.5-34.4,76"/>
    <path   class="brain lateral"    stroke="#000" stroke-width="2px" fill="none" stroke-linecap="round" stroke-linejoin="round" d="M1175,644.1c0,5.6,2.1,11.8,6.2,15.9s10.3,5.6,14.9,6.2c5.6,0,10.8-2.1,15.9-4.6,10.8-6.2,20-15.4,27.7-25.2,9.2-11.3,18-24.1,25.2-37,9.8-16.4,20-34.9,21.1-54.5"/>
    <path   class="brain lateral"    stroke="#000" stroke-width="2px" fill="none" stroke-linecap="round" stroke-linejoin="round" d="M1208.3,600.9c-4.6,13.4-22.1,29.3-36,30.8"/>
    <path   class="brain lateral"    stroke="#000" stroke-width="2px" fill="none" stroke-linecap="round" stroke-linejoin="round" d="M1149.8,623.5c2.1,12.8,12.8,23.6,27.7,21.1,6.2-1,14.9-7.2,20-10.3,13.4-9.2,22.1-23.1,30.3-36.5,5.1-8.7,10.8-17,15.9-25.7,3.1-5.1,6.2-9.8,9.8-14.4,2.6-3.6,5.6-7.2,8.2-10.8,1-1,2.1-2.6,3.1-3.6"/>
    <path   class="brain lateral"    stroke="#000" stroke-width="2px" fill="none" stroke-linecap="round" stroke-linejoin="round" d="M1254,586c-6.2,13.4-14.9,25.2-24.7,36-2.6,3.1-5.6,5.6-8.2,8.2-5.1,5.1-10.8,9.8-17.5,13.4-5.1,3.1-13.9,7.7-20,4.1-1.5-1-2.6-2.1-3.6-4.1"/>
    <path   class="brain lateral"    stroke="#000" stroke-width="2px" fill="none" stroke-linecap="round" stroke-linejoin="round" d="M1132.8,598.9c0,5.1,0,9.8,2.1,14.4,2.6,6.7,9.8,10.8,16.4,10.3,14.9-.5,26.7-11.8,36.5-22.1,3.1-3.1,5.6-6.2,8.7-9.8,6.7-7.7,12.3-15.9,17.5-24.7,1.5-2.1,2.6-4.1,3.6-6.7"/>
    <path   class="brain lateral"    stroke="#000" stroke-width="2px" fill="none" stroke-linecap="round" stroke-linejoin="round" d="M1103.5,568.5c0,4.6,3.6,9.2,7.2,11.3,6.7,3.6,14.9-1.5,19.5-7.2"/>
    <path   class="brain lateral"    stroke="#000" stroke-width="2px" fill="none" stroke-linecap="round" stroke-linejoin="round" d="M1113.3,580.4c0,3.6,0,7.7,2.1,10.8,4.1,10.8,19,8.7,27.2,4.6,10.8-5.6,19-13.4,27.7-21.6"/>
    <path   class="brain lateral"    stroke="#000" stroke-width="2px" fill="none" stroke-linecap="round" stroke-linejoin="round" d="M1159,702.1c5.1,5.6,9.2,5.1,16.4,4.1,11.8-2.1,21.1-11.8,26.2-22.1,1.5-3.1,2.6-6.7,3.6-10.3"/>
    <path   class="brain lateral"    stroke="#000" stroke-width="2px" fill="none" stroke-linecap="round" stroke-linejoin="round" d="M1095.8,660.5c.5,3.6,2.1,6.7,4.6,9.8,7.7,9.2,22.1,3.6,30.8,0,11.3-5.1,21.1-13.4,27.7-24.1,1-1.5,1.5-3.1,2.6-4.6"/>
    <path   class="brain lateral"    stroke="#000" stroke-width="2px" fill="none" stroke-linecap="round" stroke-linejoin="round" d="M1125.6,691.3c1.5,4.1,6.2,7.7,9.2,10.3,3.1,2.1,8.2,3.1,11.8,3.1s8.2-1,12.3-2.6c11.8-5.1,23.1-13.9,29.3-25.7,1.5-3.6,2.6-7.2,4.1-10.8"/>
    <path   class="brain lateral"    stroke="#000" stroke-width="2px" fill="none" stroke-linecap="round" stroke-linejoin="round" d="M1110.8,674.9c3.1,10.3,12.8,18.5,24.1,16.4,16.4-3.1,28.3-15.4,38.5-27.2,3.1-3.6,2.6-4.1,4.6-7.7"/>
    <path   class="brain lateral"    stroke="#000" stroke-width="2px" fill="none" stroke-linecap="round" stroke-linejoin="round" d="M1077.8,638.9c0,5.6,1,11.3,4.6,15.9,5.6,6.7,14.9,6.2,22.1,3.6,15.9-5.6,28.8-15.9,40.6-27.2,1.5-1.5,3.1-3.1,4.6-5.1"/>
    <path   class="brain lateral"    stroke="#000" stroke-width="2px" fill="none" stroke-linecap="round" stroke-linejoin="round" d="M1114.8,590.1c-8.7,1-16.4,6.7-22.6,12.3-7.2,5.6-14.4,11.8-20.5,18s-11.3,9.8-8.2,15.4c2.1,3.6,8.2,4.1,11.8,4.1,5.6,0,10.8-2.6,15.9-5.1,11.3-5.1,22.1-11.8,32.9-17.5,3.6-2.1,7.2-4.1,10.3-6.7"/>
    <path   class="brain lateral"    stroke="#000" stroke-width="2px" fill="none" stroke-linecap="round" stroke-linejoin="round" d="M1045.5,611.2c0,1.5-.5,3.1-1,4.6-1,6.7,3.6,11.3,9.8,11.8,4.1,0,7.7-.5,11.3-2.1"/>
    <path   class="brain lateral"    stroke="#000" stroke-width="2px" fill="none" stroke-linecap="round" stroke-linejoin="round" d="M1081.5,653.8c-1,.5-2.1,1-3.1,1.5-4.6,2.1-9.2,4.6-14.4,6.2-4.6,1.5-10.3,2.1-13.4-2.6s-1-11.8,1.5-16.4c2.6-4.1,5.6-9.2,10.3-11.8"/>
    <path   class="brain lateral"    stroke="#000" stroke-width="2px" fill="none" stroke-linecap="round" stroke-linejoin="round" d="M1059.3,662.5c-3.1,4.1-4.6,9.8-1,13.9,4.1,4.6,13.4,1,18-1,7.2-3.1,13.9-7.7,21.1-11.3"/>
    <path   class="brain lateral"    stroke="#000" stroke-width="2px" fill="none" stroke-linecap="round" stroke-linejoin="round" d="M1062,678.5c-.5,5.1,0,11.3,2.6,15.9,3.1,6.7,9.2,11.8,16.4,13.4,4.6,1,9.2,1.5,13.4,0,2.6-.5,4.6-1.5,6.7-2.1"/>
    <path   class="brain lateral"    stroke="#000" stroke-width="2px" fill="none" stroke-linecap="round" stroke-linejoin="round" d="M1071.1,677.4v1c0,2.1,1.5,4.1,3.1,5.6,5.6,5.6,13.9,7.2,21.6,7.2s14.9-3.1,22.1-4.6"/>
    <path   class="brain lateral"    stroke="#000" stroke-width="2px" fill="none" stroke-linecap="round" stroke-linejoin="round" d="M1091.8,690.8c1,5.1,3.6,9.8,7.2,12.8,5.6,4.6,12.8,5.1,19.5,3.6,5.6-1.5,9.2-5.1,13.4-8.2"/>
    <path   class="brain lateral"    stroke="#000" stroke-width="2px" fill="none" stroke-linecap="round" stroke-linejoin="round" d="M1031.1,631.7c-1,9.2,2.6,18.5,13.4,20.5h4.6"/>
    <path   class="brain lateral"    stroke="#000" stroke-width="2px" fill="none" stroke-linecap="round" stroke-linejoin="round" d="M1016.2,442.7c19.5,0,31.8,13.4,43.1,27.2,20.5,24.7,49.3,42.1,79.6,51.9,33.9,11.3,68.8,9.8,103.8,14.4,8.7,1,16.4,5.6,24.7,7.2,6.2,1.5,12.8,1,19.5,1.5,13.9,1,23.6-1.5,34.9-9.8,7.2-5.6,18-13.9,22.6-21.6,5.1-9.2,5.1-24.1,3.6-34.9-1.5-11.8-3.1-21.1-13.9-27.2-14.4-7.7-30.3-13.9-43.7-23.1-10.3-7.2-23.6-13.9-37-16.4"/>
    <path   class="brain lateral"    stroke="#000" stroke-width="2px" fill="none" stroke-linecap="round" stroke-linejoin="round" d="M1009,544.4c6.2-13.9,27.7-8.7,38-4.6,26.7,10.3,51.9,25.2,79.6,31.8,23.6,5.6,48.3,3.6,71.9-2.6,19.5-5.1,34.4-19,53.4-24.1,2.6-.5,7.7-1.5,12.8-2.6"/>
    <path   class="brain lateral"    stroke="#000" stroke-width="2px" fill="none" stroke-linecap="round" stroke-linejoin="round" d="M999.2,537.2c7.7-4.6,15.4-7.2,25.7-5.6,4.1.5,7.2,2.6,10.8,4.1"/>
    <path   class="brain lateral"    stroke="#000" stroke-width="2px" fill="none" stroke-linecap="round" stroke-linejoin="round" d="M1112.2,567.5c-23.6,2.1-46.2,9.2-65.8,24.1-25.7,19.5-43.7,47.8-71.4,64.2-20,11.8-38,24.7-58.6,35.4-20,10.3-38.5,22.6-54.5,38.5-23.6,22.6-37,38.5-71.4,41.6-61.1,6.2-102.2-52.4-112-106.3-3.1-17-3.1-34.4-3.1-51.4"/>
    <path   class="brain lateral"    stroke="#000" stroke-width="2px" fill="none" stroke-linecap="round" stroke-linejoin="round" d="M837.4,752.4c7.2,1,13.9,2.1,21.1,1.5,47.3-4.6,96.1-9.2,126.4-49.8,21.1-27.7,35.4-59.1,56-87.3,13.9-19,32.4-33.4,51.4-46.7"/>
    <path   class="brain lateral"    stroke="#000" stroke-width="2px" fill="none" stroke-linecap="round" stroke-linejoin="round" d="M1264.3,379.5c0,12.8-6.7,26.7-14.4,37-3.1,4.1-7.2,8.2-11.8,10.8"/>
    <path   class="brain lateral"    stroke="#000" stroke-width="2px" fill="none" stroke-linecap="round" stroke-linejoin="round" d="M843.6,608.1c0-5.6,0-10.8-1-16.4-1-4.6-4.6-8.2-5.1-12.3"/>
    <path   class="brain lateral"    stroke="#000" stroke-width="2px" fill="none" stroke-linecap="round" stroke-linejoin="round" d="M806.1,489.9c-1,7.7,0,17.5,0,23.6,1,8.7,7.7,28.3,13.9,33.9"/>
    <path   class="brain lateral"    stroke="#000" stroke-width="2px" fill="none" stroke-linecap="round" stroke-linejoin="round" d="M823.5,343c6.7,0,14.4-1,21.6-1.5,9.2,0,11.3-3.1,18.5-6.7"/>
    <path   class="brain lateral"    stroke="#000" stroke-width="2px" fill="none" stroke-linecap="round" stroke-linejoin="round" d="M1097.3,416.5c13.9-5.1,25.2-27.7,31.8-40.1,17-31.3,39.6-68.8,42.6-105.3,0-5.6-1.5-12.3-2.6-17.5-2.1-9.2-7.7-14.9-13.9-22.1-8.7-10.3-16.4-22.6-22.1-35.4-2.6-6.2-7.7-12.8-12.3-18-5.6-6.2-14.9-10.3-23.1-10.8-9.2-.5-18.5,2.6-26.7,7.2-11.3,6.2-23.1,14.4-30.8,25.2-6.7,8.7-9.8,18.5-10.8,29.3,0,5.1-.5,9.8,0,14.9,0,4.6,0,9.2,1,13.9,1,9.2,3.1,17,3.1,26.7s-.5,17-4.1,24.1c-11.8,25.7-31.3,49.8-48.8,71.4-58,71.9-76,166.9-133.6,239.4-16.4,21.1-34.9,41.1-49.3,63.7-8.7,13.4-19.5,24.1-31.8,33.4-11.8,8.7-25.2,14.4-30.3,29.3"/>
    <path   class="brain lateral"    stroke="#000" stroke-width="2px" fill="none" stroke-linecap="round" stroke-linejoin="round" d="M1127.6,186.9c1-1.5,2.1-3.6,2.6-4.6,8.2-14.4,38,0,47.8,6.2,14.4,8.2,27.7,18,37.5,31.3,7.7,10.3,11.8,22.6,16.4,34.4,4.1,10.8,10.3,21.6,16.4,31.3,5.1,8.2,8.2,17,12.8,25.2,8.2,14.9,20.5,27.7,34.4,37.5,4.1,3.1,8.2,5.6,11.8,8.7,6.2,5.1,12.3,10.3,18,15.9,5.6,5.6,6.2,6.7,9.2,10.3s6.2,7.2,8.7,11.3c3.6,5.6,6.7,11.8,9.8,17.5,2.6,4.6,5.1,9.8,6.7,14.9,2.1,8.2,0,16.4-3.1,23.1-3.1,6.2-7.7,9.8-12.8,13.9"/>
    <path   class="brain lateral"    stroke="#000" stroke-width="2px" fill="none" stroke-linecap="round" stroke-linejoin="round" d="M1214.5,217.7h3.6c15.9-1,28.8,9.2,38.5,20.5,6.2,7.2,10.3,15.4,14.4,23.6,3.6,6.7,8.2,12.8,12.8,19,9.8,14.9,20.5,28.8,32.9,42.1,7.7,8.2,14.9,17.5,19.5,27.7,3.1,7.2,5.1,14.4,7.2,21.6,3.1,10.3,6.7,21.1,6.2,31.8"/>
    <path   class="brain lateral"    stroke="#000" stroke-width="2px" fill="none" stroke-linecap="round" stroke-linejoin="round" d="M1079.5,223.3c-1,5.1-2.1,9.8-2.6,14.9-.5,10.8-1.5,21.6-3.1,32.4-1,6.2-1.5,12.8-3.1,19-5.1,21.1-24.1,19.5-41.1,19"/>
    <path   class="brain lateral"    stroke="#000" stroke-width="2px" fill="none" stroke-linecap="round" stroke-linejoin="round" d="M1113.8,229c0,19.5,2.6,34.4,13.9,49.3"/>
    <path   class="brain lateral"    stroke="#000" stroke-width="2px" fill="none" stroke-linecap="round" stroke-linejoin="round" d="M1070.1,292.2c2.1,2.6,5.6,3.6,8.7,5.6,5.1,2.6,10.3,8.2,13.4,13.4,5.1,8.2,9.2,24.7,4.6,33.9"/>
    <path   class="brain lateral"    stroke="#000" stroke-width="2px" fill="none" stroke-linecap="round" stroke-linejoin="round" d="M995.6,213.1c6.7,0,14.9,0,21.6,2.1,4.6,1,9.2,4.1,13.9,6.2"/>
    <path   class="brain lateral"    stroke="#000" stroke-width="2px" fill="none" stroke-linecap="round" stroke-linejoin="round" d="M902.6,284c-7.2.5-12.3,7.2-19.5,8.2-6.7,1-13.9,1-21.1,1h-19c-6.2,0-10.8,3.1-16.4,4.6"/>
    <path   class="brain lateral"    stroke="#000" stroke-width="2px" fill="none" stroke-linecap="round" stroke-linejoin="round" d="M840.5,342c-.5,2.6-1,5.1-1,7.7"/>
    <path   class="brain lateral"    stroke="#000" stroke-width="2px" fill="none" stroke-linecap="round" stroke-linejoin="round" d="M625.8,262.4c8.7,9.2,24.1,7.7,34.9,13.4,25.7,13.4,22.1,42.1,15.4,65.8-10.3,37.5-19.5,75.5-21.6,114.5-1,16.4,1.5,32.4,7.2,47.8,5.6,15.4,15.4,29.8,18.5,46.2,1.5,7.2,3.1,15.4,3.6,22.6"/>
    <path   class="brain lateral"    stroke="#000" stroke-width="2px" fill="none" stroke-linecap="round" stroke-linejoin="round" d="M680.8,550.6h11.3"/>
    <path   class="brain lateral"    stroke="#000" stroke-width="2px" fill="none" stroke-linecap="round" stroke-linejoin="round" d="M607.3,383.1c-7.7,6.7-15.4,14.4-24.7,19.5-5.1,2.6-11.3,4.1-17,4.6-6.2.5-11.8,2.6-18.5,2.6"/>
    <path   class="brain lateral"    stroke="#000" stroke-width="2px" fill="none" stroke-linecap="round" stroke-linejoin="round" d="M587.2,399.5v10.3c1,6.7,6.2,9.8,8.2,15.4"/>
    <path   class="brain lateral"    stroke="#000" stroke-width="2px" fill="none" stroke-linecap="round" stroke-linejoin="round" d="M889.3,340.5c-14.9,28.8-19,61.6-36,90.4-16.4,27.7-39.6,50.9-61.1,74.5-31.3,33.9-64.7,107.9-119.2,108.4-34.4,0-56-32.9-72.4-58.6-16.4-24.7-45.2-55.5-42.1-87.3"/>
    <path   class="brain lateral"    stroke="#000" stroke-width="2px" fill="none" stroke-linecap="round" stroke-linejoin="round" d="M513.8,457.6c5.6,0,10.3,4.1,15.4,6.2,4.6,1.5,9.2,2.6,13.4,5.1,6.7,4.6,12.8,11.3,18,18.5"/>
    <path   class="brain lateral"    stroke="#000" stroke-width="2px" fill="none" stroke-linecap="round" stroke-linejoin="round" d="M608.8,243.9c2.6-14.4,9.8-31.3,23.6-29.8"/>
    <path   class="brain lateral"    stroke="#000" stroke-width="2px" fill="none" stroke-linecap="round" stroke-linejoin="round" d="M976.1,244.4c0,9.8,2.6,19.5,1.5,29.3-1.5,14.9-19.5,28.8-30.8,36.5-8.7,6.2-19,12.3-28.8,17-9.2,4.1-14.9,9.8-22.1,16.4-3.6,3.1-8.2,6.7-12.8,10.8"/>
    <path   class="brain lateral"    stroke="#000" stroke-width="2px" fill="none" stroke-linecap="round" stroke-linejoin="round" d="M997.2,263.9c-5.6-1-13.4,3.6-20,9.2"/>
    <path   class="brain lateral"    stroke="#000" stroke-width="2px" fill="none" stroke-linecap="round" stroke-linejoin="round" d="M875.4,292.7c4.6-3.1,9.2-7.7,12.8-11.8,17-18,23.1-44.7,37-65.2,20-29.3,50.3-55.5,84.8-64.7,17-4.6,36.5-5.6,53.4,0,7.7,2.6,18.5,8.7,27.2,16.4"/>
    <path   class="brain lateral"    stroke="#000" stroke-width="2px" fill="none" stroke-linecap="round" stroke-linejoin="round" d="M892.5,182.8c6.2-4.6,11.8-10.3,18.5-14.9,6.2-4.1,12.8-5.1,19.5-8.2s14.4-7.7,20.5-12.3c11.3-9.8,20.5-25.7,36-28.8,32.4-7.2,44.2,7.2,48.3,28.8"/>
    <path   class="brain lateral"    stroke="#000" stroke-width="2px" fill="none" stroke-linecap="round" stroke-linejoin="round" d="M972.5,125.8c-2.1-1-4.1-2.6-6.2-3.6-14.4-6.7-31.8-4.1-46.7,0-20,5.6-39,15.9-54.5,30.3-4.1,4.1-8.2,8.2-12.3,12.3-7.7,8.7-14.9,18.5-21.1,28.8-4.6,7.7-8.7,14.9-12.3,23.1-2.1,4.1-3.6,8.2-5.1,12.3-5.6,14.9-11.3,25.2-26.2,32.4-12.3,6.2-23.6,18-27.2,30.8-5.1,17.5,6.7,25.7,11.3,41.1,1.5,5.1,2.6,10.3,4.1,15.9,8.2,30.3,36.5,40.1,50.3,65.2"/>
    <path   class="brain lateral"    stroke="#000" stroke-width="2px" fill="none" stroke-linecap="round" stroke-linejoin="round" d="M830.8,400.6c-4.1,0-8.2.5-11.8,1.5"/>
    <path   class="brain lateral"    stroke="#000" stroke-width="2px" fill="none" stroke-linecap="round" stroke-linejoin="round" d="M772.2,450.9c-13.9-1-21.1-15.9-26.2-26.7-7.2-15.9-2.1-30.3-3.6-47.3"/>
    <path   class="brain lateral"    stroke="#000" stroke-width="2px" fill="none" stroke-linecap="round" stroke-linejoin="round" d="M697.2,435c0,7.7,3.6,12.8,5.1,20,2.1,9.2,2.1,19,2.1,28.8"/>
    <path   class="brain lateral"    stroke="#000" stroke-width="2px" fill="none" stroke-linecap="round" stroke-linejoin="round" d="M703.3,462.2c3.6,3.1,6.7,6.7,10.3,8.7"/>
    <path   class="brain lateral"    stroke="#000" stroke-width="2px" fill="none" stroke-linecap="round" stroke-linejoin="round" d="M876.4,143.2c-15.4-4.1-36-1-49.8,0-21.6,2.1-41.6,7.7-62.2,15.4-20,7.7-41.1,10.3-61.6,16.4-15.9,5.1-32.4,5.1-48.3,10.3-7.2,2.6-25.7,5.1-28.3,13.4-4.6,1-8.2,6.2-12.3,8.7-3.1,2.1-7.2,3.6-10.3,5.6-4.6,3.6-8.7,9.2-14.9,10.8-7.7,2.1-15.4,1.5-23.6,2.1-19.5,1-34.9,14.4-47.8,28.3-16.4,17.5-39,35.4-44.7,60.1,0,2.1-1,4.1-1,5.6"/>
    <path   class="brain lateral"    stroke="#000" stroke-width="2px" fill="none" stroke-linecap="round" stroke-linejoin="round" d="M698.2,214.1c4.1-1,7.2-3.6,11.3-4.6,7.7-2.1,15.9-2.6,24.1-3.1,7.7-.5,15.4-2.1,23.1-3.6,3.6-1,8.2-2.1,10.8-5.1"/>
    <path   class="brain lateral"    stroke="#000" stroke-width="2px" fill="none" stroke-linecap="round" stroke-linejoin="round" d="M772.2,173.5c-5.6,6.2-8.7,13.9-13.4,20.5-2.1,3.1-3.6,6.2-5.1,9.2"/>
    <path   class="brain lateral"    stroke="#000" stroke-width="2px" fill="none" stroke-linecap="round" stroke-linejoin="round" d="M728.5,189.4c5.1,4.1,9.8,10.3,13.4,15.9"/>
    <path   class="brain lateral"    stroke="#000" stroke-width="2px" fill="none" stroke-linecap="round" stroke-linejoin="round" d="M450.6,351.3c-.5-21.6,38.5-45.2,56.5-49.8,7.2-2.1,14.4-3.1,20.5-7.7,6.2-4.6,10.8-11.3,16.4-16.4,19.5-18,34.4-31.3,61.6-32.9,9.2,0,18.5-3.6,27.7-5.1"/>
    <path   class="brain lateral"    stroke="#000" stroke-width="2px" fill="none" stroke-linecap="round" stroke-linejoin="round" d="M389.5,443.2c-2.1-6.7-2.1-12.8-1-20,1.5-10.8,7.2-17,13.4-25.7s10.8-20,15.4-29.8c4.1-8.2,8.2-17,12.8-24.7,6.7-9.8,14.9-18,24.7-24.7,5.6-4.1,12.3-2.6,18-3.6"/>
    <path   class="brain lateral"    stroke="#000" stroke-width="2px" fill="none" stroke-linecap="round" stroke-linejoin="round" d="M611.4,313.2c-11.3,8.7-17.5,20-32.4,24.1-12.4,3.7-25.2,6.1-37.9,8.5-15.7,3-31.5,5.9-46.8,11-16.2,5.2-28.5,12.4-38.8,21.7-10.3,9.3-18.7,20.7-27.5,34.3-3.1,5.1-6.2,7.2-11.3,10.8-6.2,4.6-12.8,8.2-19.5,12.8-19,14.4-26.2,33.9-29.3,57-4.1,26.2,10.8,51.9,30.3,67.8,21.6,18.5,51.9,23.6,79.6,23.1,13.4,0,28.3-1,41.6-4.1,18-4.1,33.4-11.3,51.9-12.8,12.3-1,25.2-1,37.5-.5"/>
    <path   class="brain lateral"    stroke="#000" stroke-width="2px" fill="none" stroke-linecap="round" stroke-linejoin="round" d="M493.8,584c2.1,4.1,4.6,7.7,7.7,9.8,7.7,5.1,14.9,1,23.1-1.5,16.4-5.1,33.4-10.8,50.3-12.8,6.7-1,13.9,0,20.5,0s14.9,0,22.6,1"/>
    <path   class="brain lateral"    stroke="#000" stroke-width="2px" fill="none" stroke-linecap="round" stroke-linejoin="round" d="M695.6,287c-6.2-1-11.8,4.1-17,10.3"/>
    <path   class="brain lateral"    stroke="#000" stroke-width="2px" fill="none" stroke-linecap="round" stroke-linejoin="round" d="M1109.8,406.7c0,1.5,0,3.1-.5,4.6-.5,4.1-1,9.2,1,13.4"/>
    <path   class="brain lateral"    stroke="#000" stroke-width="2px" fill="none" stroke-linecap="round" stroke-linejoin="round" d="M977.1,716.5c18.5,9.8,30.3,25.7,50.9,32.9,30.3,11.3,63.2,8.7,94.5,10.8,45.2,2.6,87.3,25.7,128.9,41.1"/>
    <path   class="brain lateral"    stroke="#000" stroke-width="2px" fill="none" stroke-linecap="round" stroke-linejoin="round" d="M1227.8,695.4c8.7,9.8,19.5,17.5,30.3,25.7,11.8,9.2,23.6,19.5,38,25.7"/>
    <path   class="brain medial"     stroke="#000" stroke-width="2px" fill="none" stroke-linecap="round" stroke-linejoin="round" d="M849.8,1366.8c6.7-1.5,12.8-4.1,19-7.7,3.6-2.1,7.2-3.1,10.3-5.6-.5.5,0,5.6,0,6.7,1,6.2,5.1,10.8,9.2,15.4,5.1,5.1,10.3,10.3,17.5,12.8,3.1,1,6.2,1,9.2,1.5-2.1.5-3.1,1.5-4.6,3.1-4.1,6.2-8.2,12.8-9.2,20.5-1.5,11.3-.5,23.6,2.6,34.4,2.1,6.2,4.6,12.3,7.7,18,8.2,14.4,18.5,27.2,31.3,38,3.6,3.1,6.7,7.2,11.3,9.8,36,25.2,81.7,20,122.3,33.4,22.1,7.2,42.1,20,62.7,31.3,21.1,11.3,42.1,23.1,62.7,36.5,12.3,8.2,27.2,12.8,38.5,23.1"/>
    <path   class="brain medial"     stroke="#000" stroke-width="2px" fill="none" stroke-linecap="round" stroke-linejoin="round" d="M719.8,1336.5c1,1.5,2.6,3.1,4.6,3.1,11.8,1,10.8-17.5,20-20,5.1-1.5,11.3,3.1,15.4,5.6,7.2,5.1,23.1,12.8,20,24.1-2.6,10.3-12.8,6.7-19.5,11.3-3.6,2.6-5.1,7.2-3.1,11.3,1.5,3.1,6.2,6.2,9.8,7.2,4.1,1,7.7-2.6,10.8-5.1,1.5-1,3.1-2.6,4.6-3.6,1.5-1.5,2.6-1.5,4.6-2.6,15.9-7.7,31.3,6.7,47.3,6.7s13.9-5.1,19-11.8c8.7-11.8,20.5-20.5,28.8-32.4,0,0,2.6,6.7,3.1,7.7,4.1,12.8,12.8,21.6,23.6,29.8,3.1,2.6,8.2,3.1,10.8,6.2,1.5,2.1,0,4.6,1.5,6.7.5,1.5,2.1,2.6,2.6,4.1,1.5,3.6,0,6.7-2.1,9.8-4.6,7.2-9.8,14.9-9.8,24.1,0,16.4,5.6,30.8,14.9,44.2,11.3,17,21.1,34.4,39,45.2,17,10.3,36.5,12.8,55.5,15.9,30.3,5.1,62.7,10.8,90.4,23.6,15.4,7.2,30.3,15.9,45.2,24.7,14.4,8.2,29.3,15.4,43.1,24.1,12.8,7.7,24.1,19,38,25.7"/>
    <path   class="brain medial"     stroke="#000" stroke-width="2px" fill="none" stroke-linecap="round" stroke-linejoin="round" d="M768.6,1379.1c3.6,2.1,8.2,1,12.8-1,4.6-2.6,9.2-5.1,13.9-7.7,4.1-2.1,8.7-3.1,13.4-3.6"/>
    <path   class="brain medial"     stroke="#000" stroke-width="2px" fill="none" stroke-linecap="round" stroke-linejoin="round" d="M836.4,1324.2c-7.2-4.1-12.8-12.3-17.5-19-4.1-6.2-6.7-12.3-7.7-19.5-1.5-7.2-2.1-14.4-5.1-21.1-3.6-6.7-11.3-9.2-18-11.3-16.4-5.6-31.3-21.6-34.9-39-3.6-18,4.6-36.5,20-45.7-2.1,1.5-8.2.5-11.3,1-4.1,0-7.7,0-11.8.5-15.9.5-32.4,1.5-47.8,5.1-10.3,2.6-24.7,6.7-31.3,15.9-5.6,7.7,1.5,14.4,8.2,18,9.8,5.6,21.1,9.2,30.8,15.4,9.2,5.6,17.5,13.4,23.6,22.6,3.1,4.6,3.1,10.8,5.6,15.9,1.5,3.1,5.1,5.6,6.2,8.7s0,6.2,0,9.2c-.5,3.6-1,8.2-1,11.8,0,6.2,5.1,8.7,8.7,12.8,3.1,4.1,6.2,8.2,10.3,11.3,3.6,2.6,6.7,5.6,9.8,8.7,2.1,2.6,4.1,5.1,7.2,7.2,2.6,2.1,5.6,3.6,7.2,6.7,3.6,6.2-1,12.8,0,19,4.1,0,8.2-1,12.3-1,7.7,0,15.4,1.5,23.1,3.6,5.6,1.5,13.9,4.1,19,0,4.1-3.1,4.6-8.2,5.1-13.4,0-7.2,0-13.9,2.1-20.5,2.6-9.2,8.2-19.5,17.5-23.6,11.8-5.1,25.2-2.6,36.5-9.8,14.4-8.7,29.3-21.6,46.7-11.8,6.2,3.6,10.3,9.8,15.4,14.4,16.4,14.4,24.7,37.5,35.4,55.5,8.2,14.4,17,28.3,27.7,40.6,10.3,12.3,22.6,21.1,36,30.3,9.2,6.2,18.5,12.8,26.7,20s15.9,15.4,24.1,22.6c15.9,13.9,33.9,25.2,51.9,35.4,20,11.8,41.1,23.6,61.6,34.9,9.2,5.1,18,10.3,27.2,16.4,8.2,5.1,15.4,11.8,23.6,17.5,5.1,3.6,11.3,7.7,14.4,13.4"/>
    <path   class="brain medial"     stroke="#000" stroke-width="2px" fill="none" stroke-linecap="round" stroke-linejoin="round" d="M681.3,1345.2c.5,2.6,2.6,5.1,4.6,7.2,3.1,4.1,6.7,8.7,11.8,10.8,4.1,2.1,8.7,0,13.4,0-2.6,0-5.1,3.1-7.2,4.1-11.3,7.2-14.4,21.1-14.4,33.9.5,30.3,8.7,61.1,23.1,87.8,4.1,7.7,8.7,14.9,13.9,21.6,5.1,6.2,10.8,11.8,17,16.4,5.1,4.1,12.3,7.2,19,8.7,7.7,2.1,17,2.6,24.7,1.5,23.6-2.1,46.2-6.7,69.3-11.8,15.4-3.1,32.4-.5,48.3-2.1,16.4-1.5,32.9-5.1,48.3-12.3"/>
    <path   class="brain medial"     stroke="#000" stroke-width="2px" fill="none" stroke-linecap="round" stroke-linejoin="round" d="M940.8,1501.4c-7.2,8.2-18.5,10.8-29.3,12.3-15.4,2.6-32.4,6.7-48.3,2.1-17.5-5.1-29.8-20.5-45.7-28.8-16.4-8.2-37-10.8-51.4-23.1-7.7-6.7-13.4-14.9-19-23.6-5.1-8.2-11.8-16.4-14.4-26.2"/>
    <path   class="brain medial"     stroke="#000" stroke-width="2px" fill="none" stroke-linecap="round" stroke-linejoin="round" d="M740.8,1022.6c-12.8,14.9-31.8,24.7-49.3,33.4-19.5,9.8-38.5,20.5-59.1,28.3-32.9,11.8-67.8,21.1-97.6,40.1-3.1,2.1-6.2,4.6-9.2,7.7-2.6,2.6-5.1,5.1-7.7,8.2-1.5,1.5-2.6,3.6-3.6,5.6-4.6,8.7-7.2,17-15.9,23.6-10.8,8.2-24.7,11.3-38,10.8-12.8,0-20-5.1-30.8-11.3-5.6-3.1-13.4-7.7-19.5-9.2-13.4-3.1-17,4.6-22.6,14.9-18.5,34.9-30.3,84.8-2.6,118.7,13.9,17,36.5,30.3,58,32.9,30.8,3.6,60.6,8.7,90.9,16.4,8.7,2.1,17.5,1,26.2.5,8.7,0,15.9,1,24.7,2.6,19.5,2.6,36,8.7,55.5,7.2,21.6-2.1,42.6-6.7,63.7-10.3,4.1-.5,9.2-1.5,12.8-3.6,1.5-1,3.1-2.6,4.6-3.6s3.1-2.1,4.1-3.6c13.9-14.9,10.8-43.7,8.2-62.2-1-8.7-7.2-11.8-11.3-18.5-5.6-8.2-7.7-15.9-17-21.6-13.4-7.7-29.3-7.7-43.7-10.8-14.9-2.6-38.5-8.7-47.8-22.1-2.1-3.1-3.1-6.7-4.1-10.3-2.6-6.7-2.6-12.8.5-19,17-31.3,63.2-33.4,94.5-34.4,16.4,0,32.9-1,49.3-1.5,15.4,0,30.8,1,46.7,1,42.1,0,85.3,6.7,124.8,19.5,17,5.6,34.4,11.8,49.3,21.1,7.7,4.6,14.4,10.3,20.5,17,5.6,6.7,13.4,16.4,9.2,25.7-4.6,10.3-18.5,12.8-27.2,18.5-7.7,4.6-16.4,11.3-19,20.5"/>
    <path   class="brain medial"     stroke="#000" stroke-width="2px" fill="none" stroke-linecap="round" stroke-linejoin="round" d="M600.1,1335c-7.2,0-19,4.1-26.7,7.7"/>
    <path   class="brain medial"     stroke="#000" stroke-width="2px" fill="none" stroke-linecap="round" stroke-linejoin="round" d="M650.9,1223c7.7,0,15.4,0,22.6.5,7.2,1,14.4,3.6,21.6,6.2,16.4,6.2,30.3,21.1,27.7,39.6-1,8.2-5.6,15.9-12.8,21.1-8.2,5.6-17,7.2-26.7,7.2-21.6.5-43.1-1-63.2-9.8-5.6-2.6-10.8-5.1-15.9-8.7-4.6-3.1-8.7-6.2-13.9-8.2-5.6-2.1-11.3-3.6-17-5.1-9.2-2.6-18.5-5.6-27.2-9.8-10.8-5.1-20-12.3-31.3-16.4-20.5-7.7-40.1,1-60.1,5.6-6.2,1-12.8,4.1-19.5,3.6"/>
    <path   class="brain medial"     stroke="#000" stroke-width="2px" fill="none" stroke-linecap="round" stroke-linejoin="round" d="M723.4,1264.6c3.6,1.5,6.2,4.6,8.7,7.2,1.5,2.1,2.6,4.1,4.1,6.2"/>
    <path   class="brain medial"     stroke="#000" stroke-width="2px" fill="none" stroke-linecap="round" stroke-linejoin="round" d="M516.9,1076.1c-38.5,0-80.6,6.7-101.7,43.1-4.6,8.2-9.8,18.5-11.3,27.7-.5,3.6-1,7.7-1.5,11.8"/>
    <path   class="brain medial"     stroke="#000" stroke-width="2px" fill="none" stroke-linecap="round" stroke-linejoin="round" d="M516.4,1065.8c-3.1,2.6-5.1,5.6-8.7,8.2-1.5,1-2.6,1.5-3.6,2.6"/>
    <path   class="brain medial"     stroke="#000" stroke-width="2px" fill="none" stroke-linecap="round" stroke-linejoin="round" d="M475.8,1079.7c2.1-6.2,6.2-11.3,10.8-16.4,28.3-29.3,62.7-52.4,98.1-72.4,17-9.8,34.9-19,53.4-25.2,32.4-11.3,76.5-18.5,102.2,10.8"/>
    <path   class="brain medial"     stroke="#000" stroke-width="2px" fill="none" stroke-linecap="round" stroke-linejoin="round" d="M865.8,947.1c11.3-5.1,19.5-14.9,29.8-21.6,21.6-14.4,52.4-10.8,73.5,3.6,4.6,3.6,14.4,8.7,14.9,15.4"/>
    <path   class="brain medial"     stroke="#000" stroke-width="2px" fill="none" stroke-linecap="round" stroke-linejoin="round" d="M714.1,959.5c7.2-6.2,17-11.3,23.1-13.9,15.9-6.7,33.9-6.2,50.9-6.7,9.8,0,19.5-1.5,28.8-4.1,13.9-4.1,28.3-3.6,42.1-2.1,8.2,1,17,.5,25.2,2.1"/>
    <path   class="brain medial"     stroke="#000" stroke-width="2px" fill="none" stroke-linecap="round" stroke-linejoin="round" d="M608.3,1161.8c14.4-26.2,50.3-30.3,77.1-32.9,10.3-1,21.1,0,31.3-1.5,8.7-1,17-4.6,25.2-8.2"/>
    <path   class="brain medial"     stroke="#000" stroke-width="2px" fill="none" stroke-linecap="round" stroke-linejoin="round" d="M731.1,1111.5c6.7,6.2,13.9,9.8,23.1,12.3,20.5,5.1,41.6,4.1,62.2,4.1s41.6,3.6,62.7,7.7c6.2,1,12.8,2.1,19,1,4.6-1,7.7-4.1,9.2-8.2,2.1-5.1,3.1-11.3,5.1-17,2.1-6.2,3.1-11.8,7.7-16.4,11.3-11.3,27.2-15.4,40.6-22.6,13.9-7.2,27.2-16.4,36.5-29.3"/>
    <path   class="brain medial"     stroke="#000" stroke-width="2px" fill="none" stroke-linecap="round" stroke-linejoin="round" d="M674.6,1064.2c11.3,0,23.1,0,34.4-1,11.8-1,24.7-1,37-3.1,12.8-2.1,24.7-6.7,37.5-8.2,24.1-2.6,48.8,2.1,73.5-2.6,14.9-2.6,29.8-6.7,45.2-7.2,12.8-.5,22.1-11.3,30.3-19.5,11.8-11.8,24.7-22.6,36-34.9"/>
    <path   class="brain medial"     stroke="#000" stroke-width="2px" fill="none" stroke-linecap="round" stroke-linejoin="round" d="M817.9,1226.1c4.1,1.5,7.7,4.1,9.2,8.7,1,2.6,0,5.1-2.6,6.2-4.6,2.6-12.3,1-17-1-2.6-1-5.1-3.1-6.2-6.2-1.5-5.1,3.1-8.2,7.7-8.7,3.1,0,6.2,0,8.7.5v.5h.2,0Z"/>
    <path   class="brain medial"     stroke="#000" stroke-width="2px" fill="none" stroke-linecap="round" stroke-linejoin="round" d="M903.8,1133.6c0,3.1,1.5,6.2,4.1,7.7,5.1,3.6,12.3,3.6,18.5,5.1,18.5,3.6,36,10.8,51.9,20.5,4.6,3.1,8.7,6.2,12.8,9.8,5.6,4.6,10.3,9.8,14.9,15.4,5.6,7.2,11.3,14.9,15.4,23.1"/>
    <path   class="brain medial"     stroke="#000" stroke-width="2px" fill="none" stroke-linecap="round" stroke-linejoin="round" d="M946.3,1256.4c0-13.4-1.5-26.2-11.3-37-9.2-10.8-23.1-18-35.4-23.6-8.2-4.1-18.5-9.8-28.3-9.8"/>
    <path   class="brain medial"     stroke="#000" stroke-width="2px" fill="none" stroke-linecap="round" stroke-linejoin="round" d="M782.4,1237.4c0-11.8,8.7-22.6,17.5-28.8,8.7-5.6,19-11.8,29.3-13.9,7.7-1.5,15.9-1,24.1.5,3.6.5,7.2,1,10.3,1.5,3.6,1,6.2,3.6,9.2,5.1,3.1,1.5,6.7,2.6,9.8,4.1,3.6,2.6,6.7,5.6,9.8,8.7,8.2,7.7,19.5,14.4,22.1,26.2,1.5,6.7-1,13.9,1.5,20.5,4.6,11.8,18,4.6,26.7,3.6,11.8-1.5,24.1,5.1,31.3,13.9,3.1,3.1,6.7,6.2,9.2,9.8,5.1,6.7,10.3,14.4,12.8,22.1,2.1,6.2,5.1,12.3,7.2,18.5,2.1,5.6,3.6,11.3,5.1,16.4,2.6,9.2,8.2,15.9,13.4,24.1,2.1,4.1,5.1,7.2,7.2,11.3,9.8,17,27.7,28.3,47.3,30.3,6.2.5,12.3.5,18-1.5,2.6-1,5.6-2.6,7.7-4.1,1.5-1,3.6-3.6,5.6-4.1l1-1c-2.1,2.6-2.1,9.8-2.6,13.4v12.8c5.1,27.7,24.7,45.7,47.3,60.1,33.4,21.1,68.8,38.5,102.2,59.6,13.4,8.2,26.7,17.5,38.5,27.7"/>
    <path   class="brain medial"     stroke="#000" stroke-width="2px" fill="none" stroke-linecap="round" stroke-linejoin="round" d="M1074.8,1012.4c-6.2,4.6-6.2,12.8-9.8,19-3.1,5.6-9.2,9.2-10.8,15.9-1.5,6.7,1,13.9,4.1,20"/>
    <path   class="brain medial"     stroke="#000" stroke-width="2px" fill="none" stroke-linecap="round" stroke-linejoin="round" d="M1110.2,1087.9c-6.2,13.4-7.2,27.2-7.2,41.6s1,18-.5,26.7c-1,6.2-3.1,12.3-5.1,18.5s-4.1,12.8-8.2,13.4"/>
    <path   class="brain medial"     stroke="#000" stroke-width="2px" fill="none" stroke-linecap="round" stroke-linejoin="round" d="M1024.5,1094c0,12.3,8.2,21.6,13.4,31.8,10.3,19.5,13.9,42.1,13.4,64.2,0,7.7-1,15.4-2.6,22.6-.5,4.1-1,8.7-2.6,13.4"/>
    <path   class="brain medial"     stroke="#000" stroke-width="2px" fill="none" stroke-linecap="round" stroke-linejoin="round" d="M1036.2,1103.8c-2.6,4.1-3.1,8.2-3.6,12.8"/>
    <path   class="brain medial"     stroke="#000" stroke-width="2px" fill="none" stroke-linecap="round" stroke-linejoin="round" d="M968.5,929.1c29.3-.5,58-4.1,87.3,4.1,43.1,12.3,69.3,53.9,85.8,93,17.5,39.6,34.9,80.6,37.5,124.3,1,12.8.5,25.7.5,38.5"/>
    <path   class="brain medial"     stroke="#000" stroke-width="2px" fill="none" stroke-linecap="round" stroke-linejoin="round" d="M1313.1,1318.5c10.3-4.6,17-18,21.6-27.7,7.2-15.4,19-30.3,22.6-47.3,9.8-41.6-19.5-78.6-41.1-111-7.7-11.8-15.4-23.6-22.1-35.4-9.8-17-20-34.4-33.9-48.3-14.4-14.4-31.3-26.2-48.8-36-12.8-7.2-26.2-14.4-40.1-20-10.3-4.1-23.1-5.6-33.4-1.5-4.6,1.5-7.2,4.1-9.8,7.2"/>
    <path   class="brain medial"     stroke="#000" stroke-width="2px" fill="none" stroke-linecap="round" stroke-linejoin="round" d="M1216.5,1120.8c7.2,5.1,5.6,19,5.6,26.7s1,23.1-7.7,28.3"/>
    <path   class="brain medial"     stroke="#000" stroke-width="2px" fill="none" stroke-linecap="round" stroke-linejoin="round" d="M1225.2,1042.2c3.1,2.1,5.1,6.2,7.2,9.2,6.7,8.2,11.8,17.5,14.9,27.2,2.6,8.7,4.1,18,8.2,26.2,4.1,8.7,10.3,16.4,13.4,25.2,10.3,30.3,4.1,59.6-12.8,86.3-5.1,7.7-10.3,19.5-20,21.1"/>
    <path   class="brain medial"     stroke="#000" stroke-width="2px" fill="none" stroke-linecap="round" stroke-linejoin="round" d="M1273,1171.1c8.2,1,16.4,3.1,23.1,7.7,29.8,20,26.2,67.8,17,97.6"/>
    <path   class="brain medial"     stroke="#000" stroke-width="2px" fill="none" stroke-linecap="round" stroke-linejoin="round" d="M1240.1,1047.3c0,4.6,0,9.2-.5,13.9"/>
    <path   class="brain medial"     stroke="#000" stroke-width="2px" fill="none" stroke-linecap="round" stroke-linejoin="round" d="M979.2,1252.3c9.2-2.1,18.5,1.5,25.7,7.7,6.7,5.1,13.4,11.3,13.9,20v7.7c0,1.5.5,3.1,1.5,4.6,0,.5,1,1,1.5,1.5"/>
    <path   class="brain medial"     stroke="#000" stroke-width="2px" fill="none" stroke-linecap="round" stroke-linejoin="round" d="M1125.1,1393.5c-3.1,3.1-6.2,5.6-8.2,9.2-3.6,4.6-3.6,8.7-3.1,13.9,0,3.6,1,7.7,2.1,11.3,1.5,7.2,4.6,14.4,8.7,21.1,5.1,8.7,13.9,15.4,21.6,21.6,10.8,8.7,23.1,15.9,35.4,22.6,19,10.8,39.6,20,59.6,29.8,12.8,6.2,26.2,13.4,38.5,20.5,3.6,2.1,6.7,4.6,10.3,7.2,2.1,1.5,7.7,5.6,8.7,5.6"/>
    <path   class="brain medial"     stroke="#000" stroke-width="2px" fill="none" stroke-linecap="round" stroke-linejoin="round" d="M1005,1215.8c-1.5,2.1-3.1,4.6-5.6,6.2-7.7,5.6-18,8.7-27.7,7.2-11.3-2.1-18-9.2-26.2-16.4-18.5-15.9-35.4-30.3-59.6-37-26.2-7.7-58.6-17-84.8-3.1-18,9.8-42.6,37-23.6,57-1-1,1-7.7,1.5-9.2,1-3.1,3.1-5.6,5.6-7.7,4.6-4.6,10.3-8.7,15.9-12.3,24.7-14.4,55.5-18,79.6-2.1,9.2,6.2,18,13.9,26.2,21.6,6.2,6.2,12.8,14.9,17.5,22.6,2.1,3.6,3.1,8.2,5.1,11.3,3.1,4.6,7.7,3.6,12.8,3.1,7.7-.5,15.4-2.1,23.1-3.1,9.2-1.5,19.5-1.5,27.7,3.1,13.4,7.2,10.3,23.6,18,34.9,7.7,10.8,11.8,21.1,12.3,34.4,0,12.8,0,25.7,4.6,38,4.6,13.4,15.4,25.2,26.7,33.9,6.7,5.1,14.4,6.2,22.6,7.2,4.1,0,8.2-.5,11.8-3.1,4.1-3.1,4.1-6.7,5.1-10.8,0,2.1-1,5.1,0,6.7,2.6,2.6,7.2.5,9.8,0,5.1-2.1,9.2-6.2,13.9-10.3"/>
    <path   class="brain medial"     stroke="#000" stroke-width="2px" fill="none" stroke-linecap="round" stroke-linejoin="round" d="M1117.5,1386.8c2.1-2.1,4.1-4.1,6.2-5.6,4.1-3.1,8.2-6.7,10.3-11.3,1-2.6,1.5-5.1.5-7.7-2.6-6.7-11.3-5.6-17-4.6-9.8,1.5-19.5,5.1-27.2,11.8-4.6,3.6-9.8,8.2-12.8,12.8,2.6-4.6,5.1-9.2,8.7-13.4-2.1.5-5.1,0-7.7,0-4.6,0-9.2,0-13.4-1.5-6.7-1.5-14.4-3.6-19.5-8.2,2.6,0,5.1,1,7.2,2.1,2.6,1,5.6,2.1,8.2,2.6,7.2,1.5,14.4,2.1,21.6.5,8.2-1.5,15.4-6.7,23.6-9.2,7.2-2.6,14.9-2.1,22.1-5.1-2.6,1-6.7-5.1-8.2-6.7-3.1-3.6-6.7-6.7-10.8-9.2-3.6-2.6-6.7-5.6-10.3-8.2-3.1-2.1-6.7-5.6-10.3-6.2h-28.3c2.1-1,4.6-2.1,6.7-2.6,3.6-1,7.7-1,10.8-1.5,3.1,0,5.6-.5,8.7-.5-3.6-2.1-6.2-5.1-9.2-8.2-2.6-2.6-4.6-6.2-6.7-8.7-3.1-3.6-7.2-6.7-10.3-10.3-2.6-2.6-5.6-4.1-9.2-6.2-2.1-1-4.6-2.1-6.7-3.1,5.1,1.5,10.8,3.1,15.9,4.1,0-2.6-1-6.2-1.5-8.7-1-3.6-1.5-6.7-1.5-10.3s1-7.7,0-11.3c1.5,7.2,2.1,14.4,4.1,21.1s5.1,11.8,9.8,17c3.6,4.1,7.2,8.2,10.8,12.3,4.1,4.6,8.2,8.2,12.8,12.3,3.6,3.1,7.7,5.6,11.8,8.2,9.2,7.2,19,14.9,26.2,24.1,1.5,2.1,3.1,3.6,4.1,5.1.5,1,4.1,3.6,4.1,4.6,0-4.1,1.5-8.2,2.6-12.3,1.5-8.7,4.1-20.5,2.1-29.3-1.5-4.6-5.1-8.2-8.2-11.8-4.1-5.6-8.7-11.3-12.8-17-4.1-5.6-7.7-11.3-11.8-16.4-4.6-5.6-9.2-11.3-13.9-17l-13.9-19.5c8.7,9.2,17.5,19,26.7,28.3,0-11.3-.5-22.1-1-33.4,0,2.6,1.5,4.6,2.1,7.2,2.1,9.2,3.1,18.5,5.1,27.7,3.1,12.8,12.8,22.6,21.1,32.9l11.3,10.3,2.6-10.8c2.1-8.7,4.1-17.5,5.1-26.7,2.1-15.9,0-31.3-4.1-46.7,0,1.5,3.1,3.6,3.6,5.1,3.1,5.6,4.1,12.8,5.1,19,0-1,4.6-5.1,5.6-6.2,1.5-1.5,3.6-3.1,5.6-4.6,0,0,4.6-3.6,5.1-3.6-3.1,2.6-6.2,7.2-8.2,10.3-4.1,6.2-6.2,13.9-7.2,21.1-1.5,9.8-2.6,19.5-2.6,29.3l38.5-30.8c-3.1,2.6-5.6,6.2-8.2,9.2-3.1,3.1-5.6,6.2-8.7,9.2-7.2,7.7-14.9,15.4-22.6,22.6-2.1,3.6-3.6,6.2-4.1,10.3,0,10.3.5,20.5,0,30.8-1,10.8-4.6,19.5-9.8,28.8,0-.5,8.2.5,9.2.5,17,1.5,38.5,7.2,52.9-5.1,8.7-7.2,10.8-18.5,10.8-28.8s0-22.1,2.6-33.4c2.1-8.2,5.1-16.4,7.7-24.7-1,8.7-2.1,16.4-1.5,25.2,7.2-4.1,14.9-7.7,21.6-13.4,2.1-1.5,3.6-3.1,5.6-4.6-5.1,6.2-10.8,12.3-16.4,18,.5-.5,7.2,1,8.2,1.5,3.1,1,4.6,3.1,7.2,4.6-2.1-1.5-6.7-2.1-9.2-2.6-3.1-.5-6.2-1-9.2,0-7.7,1.5-9.2,8.2-9.8,14.9v19c0,6.2-1,11.8-3.1,18,4.1-1.5,8.2-3.1,12.8-3.6,10.3-1.5,20,0,29.3-4.6,8.7-4.6,14.9-12.8,21.1-20-4.1,4.6-6.7,10.8-10.8,15.9s-9.8,8.7-15.4,11.8c2.6,1.5,5.6,2.6,7.7,5.1,2.1,2.1,4.1,6.2,7.7,6.2,7.2,1,14.4,0,21.6-2.1,4.1-1,8.7-2.1,12.8-3.6-5.6,2.6-11.3,4.6-17,7.2,5.1,5.1,10.3,6.7,17,8.7-3.6-1-7.7-.5-11.3-2.1-3.1-1-5.6-2.6-9.2-2.6h-10.8c-1,0,1,9.8,1.5,10.3,1.5,5.6,5.1,9.2,8.2,13.9-2.6-3.6-6.7-5.6-9.8-8.7-5.6-5.1-6.2-13.9-10.3-19.5-9.2-13.4-29.8-10.8-43.1-6.7-11.3,3.6-21.1,9.8-31.8,14.9,3.6,5.6,6.7,10.8,10.3,16.4,2.6,4.1,5.1,8.2,7.7,12.3,2.1,3.1,3.1,6.2,5.6,8.7,5.1,5.1,12.3,7.2,19,9.8,6.7,2.6,10.8,6.2,15.4,11.8,1.5,2.1,3.1,4.1,4.6,6.2-5.1-4.1-9.8-9.2-15.4-12.8-5.6-3.6-11.8-5.1-18.5-6.2,1.5,0,1.5,15.9,1.5,17.5,0,9.2,2.1,16.4,5.1,25.2l-7.7-11.8-7.7,7.2c3.6-3.6,6.2-13.9,5.6-18.5-.5-20-17.5-34.4-28.3-49.8-2.6-4.1-5.1-8.2-7.7-12.3-.5-1-11.3,0-12.8,0-4.6,0-8.7-2.1-12.8-3.6.5,3.1,1.5,5.6,2.1,8.7,1.5,7.2,1,14.4,1.5,21.6.5,9.2,4.1,18,7.7,26.2-1-2.6-4.1-4.6-5.6-7.2-2.1-2.6-3.6-5.6-4.6-8.2-2.1-4.6-2.1-10.3-2.6-15.4-3.6,3.6-8.2,6.7-10.3,11.3-1.5,3.1-2.1,6.7-3.1,9.8,0-3.1,1-6.7,1.5-9.8,1-5.6,4.6-10.3,7.2-15.4,2.6-5.1,2.6-10.3,1-15.4-1.5-4.6-4.1-9.2-9.8-8.2-6.2,1.5-11.3,5.6-15.9,9.8l-1.5,1.5"/>
    <path   class="brain medial"     stroke="#000" stroke-width="2px" fill="none" stroke-linecap="round" stroke-linejoin="round" d="M1081,1404.8c-6.7-.5-13.9-2.6-8.7-10.8-2.1.5-4.1,2.6-6.2,3.6-2.6,1-5.6,1-8.2,1-7.2-1-3.6-9.2,1.5-10.3-3.1.5-7.7-1-9.8-3.6-3.6-3.6,0-7.2,3.6-9.2-3.1-.5-6.2.5-9.2.5-4.6,0-9.2,0-12.3-3.6-2.6-2.6-4.1-7.2,0-9.8,1-1,2.6-1,3.6-2.1-5.1,0-9.2-6.7-10.8-11.3-.5-2.6-1.5-7.7-.5-10.3.5-2.6,4.6-3.6,6.7-2.1,2.1,1.5,5.1,7.7,8.2,6.2,0,0,1-1.5,2.1-2.1.5-.5,1.5-1,2.6-1.5,5.1-1.5,9.8,3.6,12.3,7.2,2.1,3.1,3.1,6.7,4.6,9.2,0-1.5-1-4.6,0-5.6,1-1.5,3.6-2.1,4.6-2.6,3.6,0,9.2,3.1,10.8,6.2-1-2.1-3.6-4.1-1-6.2,1.5-1.5,5.1-2.1,7.2-2.1h9.2c3.1,0,8.2-2.1,10.3-4.6-2.6,1-4.1,2.6-6.7,3.1-2.6,0-6.2.5-8.7.5s-6.2.5-4.6-2.6c1-2.1,3.1-3.6,4.6-5.1-2.6-1-5.6,3.1-7.2,4.6-1,1-2.1,1.5-3.6,2.6-2.1,1-4.6,2.6-7.2,2.6s-5.6.5-7.7-1c-2.6-2.1-.5-6.2,1-8.2-1.5,0-4.1,1.5-5.6,1.5h-6.7c-5.1,0-5.6-7.2,0-6.7-3.6,0-11.8-2.1-12.8-6.2-1.5-5.6,3.6-11.3,9.2-11.3-3.6-1-6.7,0-9.8-3.1s-3.6-5.6-2.6-8.7c0,1.5-6.2-2.6-6.7-3.1-2.1-1.5-5.1-4.1-4.1-7.2.5-2.6,4.1-2.6,6.7-2.6-2.1,0-5.6-5.6-6.7-7.2-2.1-4.1-2.6-9.8,0-13.9,2.1-4.1,6.7-5.6,9.8-1-2.6-3.6-3.1-12.8,0-16.4,1-1,3.1-2.1,4.6-1.5,2.1,0,2.6,2.6,3.1,3.6-1-2.6,0-8.7,2.6-9.8,3.1-1.5,8.7-1.5,9.2,2.6-1-5.6-3.6-9.8-2.1-15.4,1-3.6,3.1-7.7,7.2-4.6,1.5,1.5,2.6,3.6,3.6,5.1,1,2.6,2.1,6.2,1.5,8.7.5-3.1,5.6-1.5,7.2-.5,2.6,1.5,3.6,3.1,4.1,6.2s.5,6.2,0,9.2c0,2.6-1.5,5.1-1.5,7.7,2.6-3.1,7.7-3.6,8.2,1,0,4.1-1.5,8.2-4.1,11.3.5-.5,5.6,0,6.7,0,2.1.5,3.6,2.6,4.1,4.6,1,3.6,0,7.7,0,11.3,3.1-1,5.6,0,7.7,2.6,2.1,3.1,2.1,6.2,2.6,9.2,2.6-3.6,8.2-1.5,10.8,1,3.1,3.1,3.1,7.7,5.6,10.3-2.1-2.6-2.6-7.7-2.6-10.8,2.1,0,4.1-.5,6.2,0-2.6,0-5.1-1.5-7.2-2.1-3.1-.5-5.6-1-8.2-3.1-3.1-2.6-5.6-6.2-5.1-10.8,0-3.6,2.6-4.1,5.6-5.1-1.5,0-3.6-1.5-4.6-2.1-2.1-1-4.1-2.6-6.2-3.6-5.6-3.1-9.8-10.8-10.8-17.5,0-4.1,3.6-3.6,7.2-4.1-2.6-1.5-6.2-1-8.2-2.6-2.6-2.1-5.1-7.7-3.1-11.3,1-1.5,3.1-2.6,4.6-3.1-4.6-1-8.2-2.1-11.3-6.2-1.5-1.5-3.6-5.6-2.6-8.2,1.5-3.6,6.2-1.5,8.2,0-3.1-1.5-6.2-7.2-6.2-10.8v-7.2c2.1-5.1,7.2-1.5,9.8,1,0-2.6,0-4.6,3.1-6.2,2.1-1.5,5.6-1.5,7.7,0,2.6,2.6,2.6,6.7,3.6,9.8-1.5-3.6-.5-10.8,4.1-11.8,4.1-1,10.8,3.1,11.3,7.7,0-3.1-1-7.7,1-10.8,2.1-3.1,6.2-3.6,8.7-1.5,2.6,2.1,3.1,6.2,3.1,9.2v6.2c0-2.6,3.6-5.1,6.2-3.6,2.6,1.5,2.1,5.1,2.1,7.2,0,5.6-2.1,12.3-5.1,17,3.6,0,6.7-2.1,9.8,0,2.6,2.1,2.6,5.1,2.6,7.7,0,5.1-2.1,8.2-6.2,11.3,2.6,0,5.6-1,8.2,0,2.6,1.5,2.6,4.1,3.1,6.7,0,7.2-3.6,11.3-8.2,15.9,3.1-.5,6.7,0,7.2,3.1.5,3.6.5,7.7.5,11.3,0-2.1,1.5-4.6,2.1-6.7h6.2c-6.2-3.1-7.2-7.2-7.2-13.9s1.5-6.2,5.6-6.7c-2.1,0-5.1-6.2-5.6-7.7-1-2.6-2.1-4.6-3.1-7.2-.5-2.1-1-5.1,0-6.7,2.1-1.5,4.6-1,7.2-1-1.5-1.5-4.1-2.1-6.7-2.6-3.1-1.5-6.2-5.1-6.2-8.7s1.5-7.2,5.6-6.2c-1.5,0-3.6-3.1-4.1-4.6-1-1.5-1.5-5.1,0-6.7,1.5-2.6,9.2-6.7,10.3-1.5,0-2.6-1-7.2,1-9.2,2.6-2.1,7.7-1,10.3,0,3.1,2.1,4.6,5.6,5.1,8.7,1,4.1,1,12.3-2.1,15.4,1.5-1.5,5.1-2.1,6.7-1,1.5,1.5,3.1,6.7,2.6,9.2,0-2.6-1-6.2,0-8.7,0-1.5,2.1-2.6,2.6-3.6,1-2.1-.5-2.6-2.1-3.6-2.1-1.5-2.1-7.2-.5-9.2,2.6-3.6,7.2-3.1,10.3,0s4.6,6.7,3.6,11.3c1-2.1,5.1-2.6,7.2-1,6.2,4.6,3.1,14.9,0,20.5.5-1.5,2.6-.5,3.1,0,.5,1,0,3.1,0,4.1-1.5,6.7-7.2,9.8-11.3,14.9,2.1,0,4.6-1.5,5.1.5,0,1.5-1,3.6-2.1,4.6-1,2.1-3.1,4.6-5.1,5.6,3.1-1.5,5.6-4.1,7.7-7.2,2.1-3.6,2.1-7.2,2.6-10.8,0,1,7.7,0,8.2,0-3.1-2.6-3.6-5.1-4.1-9.2,0-4.6-1-7.7,2.1-11.8,1.5-1.5,3.6-2.1,5.6-2.1,5.1,0,5.6,6.7,4.6,10.8,0-2.1,3.1-4.6,5.1-5.1,5.6,0,8.2,6.7,8.2,10.8s-.5,7.7-3.6,10.8c3.1,0,6.7-.5,6.7,3.1s-5.1,10.3-8.7,12.8c-2.6,2.6-5.6,3.6-8.7,6.2,2.1,0,4.6.5,4.6,3.1s-2.6,3.6-4.1,5.1-5.6,2.6-8.2,4.1c-2.1,1-3.6,1.5-5.6,2.1,5.1-.5,8.7,3.1,5.6,8.2-3.1,4.6-7.7,5.6-12.3,7.7,2.1,0,4.1,0,5.6,1,2.1,1.5,1.5,4.1,1,6.2-2.1,4.1-7.7,8.7-11.8,10.8-1.5,1-4.1,1-5.6,2.6,3.1,0,6.2-.5,8.7-.5,0,4.1,0,8.2-2.6,11.3-3.6,4.6-7.7,8.2-12.8,11.3,2.1,0,3.6,0,5.1-1,1.5-.5,3.1-2.1,4.1-2.6-.5,0,2.6,10.3,2.6,11.3,0-4.1,0-8.7,1-12.8,0-1.4.7-2.1,2.1-2.1h8.2c-1.5,0-3.6-7.7-3.6-8.7,0-3.1-1-11.3,2.6-12.8,3.1-1.5,6.7,2.6,8.2,4.6,0-3.6-1-6.7-1.5-10.3-.5-3.1,0-6.2,0-9.8,3.1,0,6.7,4.1,7.7,6.7-1-2.6-2.1-6.7-2.6-10.3-1-5.6,0-13.4,3.6-17.5,3.1-3.6,9.2-5.6,12.3-.5-3.1-5.1-2.6-13.9,0-19.5,1.5-3.1,3.1-6.2,7.2-6.2s6.2,0,6.7,3.6c0-3.6,0-7.7,3.6-10.3,1.5-1,5.1-1,6.7,0,1.5,1,1.5,3.6,2.1,5.6,0-2.6,3.6-4.6,6.2-4.1,5.1,1.5,3.1,8.7,2.6,12.8-1,5.1-2.6,10.3-4.6,15.4,2.6-6.7,10.8-7.7,16.4-4.1,2.6,1.5,5.1,4.6,6.7,7.7,1,3.1,1.5,7.7-.5,10.3,1.5-2.6,7.7-6.2,10.8-4.1,2.6,2.1,1.5,7.2,1.5,9.8s0,7.7-3.1,10.3c-4.1,3.6-9.8,6.2-15.4,7.7,4.6-1.5,8.2,2.6,5.6,6.7-3.1,4.6-10.3,6.7-15.4,7.2-2.6,0-7.2.5-9.2,1.5,2.6,0,6.2.5,8.2,2.1,0,0-4.6,5.1-5.1,5.6-2.6,2.6-6.7,2.1-9.8,4.6,1.5,1,3.6.5,5.1.5v5.6c0-1.5,1-3.6,1.5-5.1.5-2.1,2.6-3.6,4.1-5.1,1.5-1,6.2-3.1,8.2-1.5,1,1,1.5,3.1,2.1,4.1,0-4.1.5-8.2,2.6-11.8,1-1.5,2.1-3.6,4.1-4.1,2.6-.5,4.6,1,7.2,1,.5-5.6-2.6-12.8,3.6-16.4,1.5-1,4.1-1.5,5.6-.5s2.1,4.1,1.5,5.1c.5-4.1,1-8.7,3.1-11.8,2.1-2.6,7.2-3.6,9.2-.5,1.5,2.1.5,5.1,0,7.7,2.6-2.1,4.1-6.7,8.2-4.1,3.6,2.1,3.1,8.7,1.5,11.8-1,2.6-3.1,4.6-3.6,7.2,0-.5,4.6-.5,5.1-.5,2.1,0,3.6,0,4.1,2.1,2.6,9.8-12.8,11.3-18,14.9,2.1,0,4.1-.5,6.2,0,0,0-3.1,3.1-3.1,3.6-3.1,2.6-6.7,5.1-10.8,6.7-1.5,0-2.6.5-4.1,1v9.2c0-2.6,1-5.1,2.1-6.7,2.1-2.6,5.1-1.5,7.2-3.1,3.1-2.1,5.1-3.6,9.2-2.6-1,0,1.5-7.7,2.1-8.2,1.5-2.6,5.1-5.1,8.2-4.6,3.1.5,3.6,4.1,3.6,6.7.5-4.1,9.8-9.2,10.8-3.6s-2.6,10.3-5.6,14.4c2.1-1.5,5.6-3.6,7.7,0,2.6,4.6-2.1,8.7-5.1,11.3-2.1,1.5-4.1,2.6-6.2,3.6,2.6,0,4.1,0,6.2,1,6.7,4.1-1.5,15.4-7.7,14.4,2.6,0,6.7,1,5.1,4.6-.5,1.5-2.1,2.6-3.6,3.1-3.6,1-7.2,1-10.8,1,4.1,0,8.2,1,11.3,4.1s3.1,5.6,1,8.2c-3.1,3.6-6.7,2.6-10.3,1.5,3.1,1,3.1,5.6,2.6,8.2s-4.6,4.1-7.2,4.1-6.2-1-8.2-3.1c1,1.5,1.5,4.1,1.5,6.2-1,4.6-8.2,6.7-12.3,4.6-3.6-1.5-5.1-6.7-6.2-10.3-1,2.1-2.6,5.6-5.6,5.6-6.2-.5-6.2-9.2-7.7-13.4-.5,5.1-5.6,8.7-9.8,4.1-2.1-2.1-3.1-3.6-3.6-6.2s-1.5-5.1-1-8.2c-1.5,2.1-1.5,5.6-4.6,6.7-2.1,1-5.6,0-7.7-1-5.6-2.6-8.2-6.7-10.3-12.3,0,2.1,0,5.6-1.5,7.7-.5,1-8.2-5.1-9.2-5.6,1.5,1.5,3.6,4.1,3.6,6.7,0,0,8.7.5,9.2,1,1,0,1,9.2,1,10.3,2.1-3.1,3.6-4.6,7.2-5.1,4.6,0,9.8,1.5,13.4,5.1,3.1,3.1,4.1,9.8,1,13.9,2.6-3.1,5.6-5.6,9.8-6.2,4.1,0,7.7,3.1,7.2,7.2,3.1-2.1,10.3.5,11.8,4.1,3.1,6.7-8.2,4.6-11.8,4.6,2.6.5,4.6,1.5,6.7,3.1,2.1,1,4.1,2.1,4.6,4.6.5,2.1,0,5.1,0,7.2-1.5,3.6-7.7,3.6-10.8,3.1,4.1,2.6,7.7,3.6,8.2,8.7,0,3.6-1.5,5.6-3.6,8.2-2.6,3.1-6.7,4.6-10.8,4.1-4.1,0-6.2-3.6-7.7-7.2,2.1,6.2,0,16.4-6.2,18.5-2.1.5-5.1,1-7.2,0-3.1-1-4.1-4.6-5.6-7.7,1.5,3.1,2.1,10.8-1,12.8-2.1,1.5-6.2,1.5-8.7,1.5s-6.7-1-9.2-3.1c-4.6-3.6-3.6-10.3-5.1-14.9,0,4.1-1,13.4-5.6,14.9-3.1,1-7.2-2.1-9.2-4.1-3.1-2.6-3.6-7.7-3.6-11.8s1-9.8,3.1-14.4c-2.1,2.6-2.6,5.1-6.2,5.1s-5.6-1.5-6.2-4.6c-1.5-4.6,0-10.3,2.1-14.4,1-2.1,2.6-5.1,4.6-6.7-1.5,1-4.6,2.6-6.2,2.6v-12.8c0-5.1-.5-11.3,0-16.4-1,4.1-2.6,7.2-3.1,11.3-2.1-2.1-3.6-4.6-5.6-6.7,1,1.5,1.5,3.6,2.6,5.1.5,1.5,1.5,2.6,2.6,4.1,1.5,3.6,1,7.2,1,10.8s-2.1,10.3-6.7,11.8c3.6,1,5.6,1,7.7,4.1,2.1,4.1,1.5,12.8-3.1,15.4-2.6,1.5-7.2,0-9.2-2.1-2.6-2.6-1.5-6.7-2.6-9.8,1,2.6,1,8.7-2.1,9.8-2.6,1-4.6-1.5-6.2-2.6-2.6-2.1-5.1-4.6-7.2-7.2-3.6-4.6-4.1-9.8-4.1-15.4-.5,5.6-4.6,9.8-10.3,10.8-3.1.5-5.1-.5-7.7-2.6-4.1-3.6-4.6-10.8-3.6-15.9-.5,3.1-3.6,7.7-7.2,6.2-3.1-1.5-4.1-7.2-4.1-10.3v-5.6c0-2.6,1.5-4.6,2.1-6.7-.5,3.1-4.6,4.1-6.2,1.5,0,0-.5-1-1-1.5"/>
    <path   class="brain medial"     stroke="#000" stroke-width="2px" fill="none" stroke-linecap="round" stroke-linejoin="round" d="M1015.8,1270.2c-1-2.1-1.5-4.1-1.5-6.7,0-5.1,4.6-6.2,8.7-3.6,3.1,2.1,5.1,4.6,7.7,7.2"/>
    <path   class="brain medial"     stroke="#000" stroke-width="2px" fill="none" stroke-linecap="round" stroke-linejoin="round" d="M1019.8,1258.9c0-3.6-1-7.2,0-10.3,1.5-3.1,4.6-6.2,8.2-5.1,3.1.5,4.1,4.1,4.6,7.2"/>
    <path   class="brain medial"     stroke="#000" stroke-width="2px" fill="none" stroke-linecap="round" stroke-linejoin="round" d="M1026.5,1243c0-2.6,1-4.6,2.6-6.7,2.6-3.6,7.7-3.1,10.8-.5,2.1,1.5,3.6,4.1,4.1,7.2"/>
    <path   class="brain medial"     stroke="#000" stroke-width="2px" fill="none" stroke-linecap="round" stroke-linejoin="round" d="M1054.2,1225.5c3.1-3.1,8.7-3.6,13.4-2.1"/>
    <path   class="brain medial"     stroke="#000" stroke-width="2px" fill="none" stroke-linecap="round" stroke-linejoin="round" d="M1070.1,1204.5c-2.6.5-5.1,2.1-7.7,3.6-6.2,4.1-12.8,11.3-12.8,19-1-.5-2.1-1-3.6-1-4.1,0-7.2,4.1-9.2,8.2"/>
    <path   class="brain medial"     stroke="#000" stroke-width="2px" fill="none" stroke-linecap="round" stroke-linejoin="round" d="M1126.6,1207.1c2.1-3.1,6.7-5.1,9.2-6.7,4.1-2.1,7.7-2.6,11.8-3.6"/>
    <path   class="brain medial"     stroke="#000" stroke-width="2px" fill="none" stroke-linecap="round" stroke-linejoin="round" d="M1158,1203.5c4.6-1,9.2-1,14.4,0"/>
    <path   class="brain medial"     stroke="#000" stroke-width="2px" fill="none" stroke-linecap="round" stroke-linejoin="round" d="M1262.2,1275.4c0-8.7-2.6-20.5-11.8-22.6"/>
    <path   class="brain medial"     stroke="#000" stroke-width="2px" fill="none" stroke-linecap="round" stroke-linejoin="round" d="M1293.6,1304.6c-1-6.7-5.1-12.3-12.3-14.4"/>
    <path   class="brain medial"     stroke="#000" stroke-width="2px" fill="none" stroke-linecap="round" stroke-linejoin="round" d="M1309,1315.4c6.2,2.6,10.3,10.8,9.2,17"/>
    <path   class="brain medial"     stroke="#000" stroke-width="2px" fill="none" stroke-linecap="round" stroke-linejoin="round" d="M1313.6,1331.9c2.6,0,4.6.5,7.2,2.1,3.1,1.5,4.6,3.6,4.6,7.2"/>
    <path   class="brain medial"     stroke="#000" stroke-width="2px" fill="none" stroke-linecap="round" stroke-linejoin="round" d="M1327,1342.1c4.1.5,6.7,3.6,8.2,8.2,1,2.6,2.1,5.1,2.1,8.2v3.1"/>
    <path   class="brain medial"     stroke="#000" stroke-width="2px" fill="none" stroke-linecap="round" stroke-linejoin="round" d="M1329.5,1360.6c3.6-1,8.2,0,9.2,4.1.5,3.1,1.5,6.7.5,9.2-.5,2.1-1.5,2.6-3.1,3.1"/>
    <path   class="brain medial"     stroke="#000" stroke-width="2px" fill="none" stroke-linecap="round" stroke-linejoin="round" d="M1325.5,1374c3.6,0,7.2,1,9.8,2.6,4.1,3.1,5.1,9.8,4.1,13.9-.5,2.6-2.1,4.6-4.6,5.6h-1"/>
    <path   class="brain medial"     stroke="#000" stroke-width="2px" fill="none" stroke-linecap="round" stroke-linejoin="round" d="M1328.5,1409.4c1.5,0,3.1,0,4.1-2.1,3.1-4.6,2.1-10.8-1.5-14.4-4.1-4.6-9.2-5.1-14.9-5.6"/>
    <path   class="brain medial"     stroke="#000" stroke-width="2px" fill="none" stroke-linecap="round" stroke-linejoin="round" d="M1319.8,1430.5c1,0,2.1,0,2.6-1,1.5-1,3.6-2.6,4.6-4.1,7.2-8.7,2.1-22.6-7.7-26.7-3.6-1.5-7.7-2.1-11.8-3.1"/>
    <path   class="brain medial"     stroke="#000" stroke-width="2px" fill="none" stroke-linecap="round" stroke-linejoin="round" d="M1304.3,1445.9c3.6,0,7.2-.5,9.8-2.6,4.6-3.1,5.1-10.8,5.1-16.4s-3.1-9.8-7.7-12.3"/>
    <path   class="brain medial"     stroke="#000" stroke-width="2px" fill="none" stroke-linecap="round" stroke-linejoin="round" d="M1296.6,1453.1h2.1c2.1-1,3.6-2.6,4.6-4.6,6.2-10.3-1.5-20.5-7.2-28.8"/>
    <path   class="brain medial"     stroke="#000" stroke-width="2px" fill="none" stroke-linecap="round" stroke-linejoin="round" d="M1294.1,1472.1c2.1-4.1,3.6-7.7,3.6-12.8s-3.1-14.9-8.7-20c-1.5-1.5-3.1-2.6-5.1-3.6"/>
    <path   class="brain medial"     stroke="#000" stroke-width="2px" fill="none" stroke-linecap="round" stroke-linejoin="round" d="M1282.8,1494.2c3.1-2.1,6.2-6.7,7.2-8.7,4.1-6.7,5.1-14.4,3.6-22.1-1-6.7-3.1-13.9-8.7-18.5-3.6-3.1-8.7-4.6-12.8-6.2"/>
    <path   class="brain medial"     stroke="#000" stroke-width="2px" fill="none" stroke-linecap="round" stroke-linejoin="round" d="M1264.8,1511.1c5.1-.5,10.8-1.5,13.9-6.2,4.1-5.1,4.6-12.8,4.6-19v-10.8c0-3.6-.5-9.2-2.6-12.3-2.1-3.6-5.6-4.1-8.7-5.6"/>
    <path   class="brain medial"     stroke="#000" stroke-width="2px" fill="none" stroke-linecap="round" stroke-linejoin="round" d="M1245.8,1520.4h6.7c5.6,0,10.8-4.6,12.3-9.8,4.1-13.4-1.5-27.7-6.7-40.1"/>
    <path   class="brain medial"     stroke="#000" stroke-width="2px" fill="none" stroke-linecap="round" stroke-linejoin="round" d="M1243.2,1524c6.7-7.7,4.6-18.5,1-28.3-1.5-4.6-3.6-9.2-5.1-13.4"/>
    <path   class="brain medial"     stroke="#000" stroke-width="2px" fill="none" stroke-linecap="round" stroke-linejoin="round" d="M1217.5,1511.7c0-11.3-1-22.1-2.1-33.4"/>
    <line   class="brain medial"     stroke="#000" stroke-width="2px" fill="none" stroke-linecap="round" stroke-linejoin="round" x1="1197.5" y1="1501.9" x2="1196" y2="1468"/>
    <line   class="brain medial"     stroke="#000" stroke-width="2px" fill="none" stroke-linecap="round" stroke-linejoin="round" x1="1171.8" y1="1487.5" x2="1171.3" y2="1461.3"/>
    <line   class="brain medial"     stroke="#000" stroke-width="2px" fill="none" stroke-linecap="round" stroke-linejoin="round" x1="1188.8" y1="1466.5" x2="1188.8" y2="1497.3"/>
    <line   class="brain medial"     stroke="#000" stroke-width="2px" fill="none" stroke-linecap="round" stroke-linejoin="round" x1="1151.3" y1="1445.9" x2="1151.3" y2="1474.7"/>
    <line   class="brain medial"     stroke="#000" stroke-width="2px" fill="none" stroke-linecap="round" stroke-linejoin="round" x1="1128.2" y1="1454.6" x2="1128.2" y2="1441.3"/>
  </g>
</svg>